<svg width="342" height="196" viewBox="0 0 342 196" fill="none" xmlns="http://www.w3.org/2000/svg">
<path d="M156 114.379C156 114.379 161.896 104.157 175.996 105.293C175.996 105.293 196.467 88.2558 218.297 103.021C218.297 103.021 241.501 99.3625 258.686 106.189C270.144 110.741 273.929 115.508 273.929 115.508L156 114.379Z" fill="#F8FCFF" fill-opacity="0.6"/>
<path d="M33.6973 105.563C33.6973 105.563 35.9608 101.329 41.3737 101.799C41.3737 101.799 49.2324 94.7421 57.6125 100.853C57.6125 100.853 66.526 99.3393 73.1166 102.166C77.5153 104.057 78.9685 106.028 78.9685 106.028L33.6973 105.563Z" fill="#F8FCFF"/>
<path d="M341.382 161.568C341.382 161.601 341.382 161.635 341.39 161.669C341.251 164.407 340.883 167.128 340.291 169.805L325.111 172.186L321.977 172.677L320.195 172.957L307.844 174.895L306.739 175.068L304.256 175.458L303.61 175.559C303.61 175.559 303.078 175.621 302.154 175.709L301.914 175.732C301.299 175.789 300.538 175.855 299.664 175.921C299.336 175.947 298.989 175.971 298.633 175.995L298.429 176.009C297.928 176.043 297.403 176.075 296.855 176.105C295.726 176.166 294.508 176.218 293.239 176.249C292.746 176.261 292.245 176.271 291.74 176.278C291.477 176.278 291.211 176.278 290.945 176.278C290.625 176.278 290.304 176.278 289.981 176.278C289.504 176.278 289.024 176.267 288.546 176.255C288.195 176.247 287.843 176.236 287.493 176.224C287.004 176.205 286.517 176.181 286.032 176.152L285.809 176.137C285.583 176.124 285.358 176.109 285.133 176.091C284.021 176.008 282.935 175.893 281.902 175.74C281.727 175.715 281.556 175.688 281.386 175.659C277.5 175.024 274.466 173.813 273.767 171.644C273.133 169.657 274.505 166.831 279.034 162.899C279.788 162.246 280.573 161.619 281.388 161.021C286.642 157.158 293.11 154.421 299.891 152.488C300.172 152.407 300.453 152.328 300.735 152.252L300.87 152.215L301.101 152.153L301.557 152.032C301.827 151.96 302.098 151.891 302.368 151.822C303.718 151.477 305.077 151.161 306.444 150.877C306.787 150.804 307.13 150.733 307.473 150.665L307.953 150.569L308.286 150.504L308.792 150.408C314.194 149.411 319.651 148.734 325.134 148.382C330.823 147.999 335.803 147.968 339.33 148.03C339.736 149.016 340.087 150.519 340.38 152.284C340.82 155.058 341.152 158.48 341.382 161.568Z" fill="#A8D29F"/>
<path d="M64.0969 105.363L57.3853 115.863L57.1748 101.369L55.2865 100.385L55.4536 118.891L47.3242 131.608L48.544 135.614L64.7965 105.802L64.0969 105.363Z" fill="#804E42"/>
<path d="M64.7975 105.803L64.1103 105.369L48.2168 134.531L48.545 135.614L64.7975 105.803Z" fill="#613B32"/>
<path d="M39.7049 139.014L22.7899 114.248L21.9664 114.663L34.1884 136.147L28.5665 133.225L17.4219 119.604C27.8235 136.785 30.5787 137.751 47.2337 148.84L50.0137 144.363L39.7049 139.014Z" fill="#804E42"/>
<path d="M50.0183 144.369L39.7034 139.014L22.7883 114.248L21.9648 114.663L24.3857 118.916L38.8551 140.104L49.1701 145.434L47.1146 148.741L47.2384 148.821L50.0183 144.369Z" fill="#613B32"/>
<path d="M47.24 168.72L27.4768 142.332L36.3058 157.259L14.9453 141.682L40.0331 163.556L47.24 175.735V168.72Z" fill="#804E42"/>
<path d="M47.2397 168.72L27.4766 142.332L33.0427 151.743L46.2119 169.327V173.995L47.2397 175.735V168.72Z" fill="#613B32"/>
<path d="M25.5566 89.1846L44.6263 110.106L46.9605 117.219L25.5566 89.1846Z" fill="#804E42"/>
<path d="M36.2617 81.2031L49.0533 116.278L53.1768 194.674H41.2706L44.9236 116.686L36.2617 81.2031Z" fill="#804E42"/>
<path d="M49.0533 116.278L36.2617 81.2031L40.3481 97.9448L47.0349 116.278L51.1583 194.674H53.1768L49.0533 116.278Z" fill="#613B32"/>
<path d="M59.9498 151.495L62.5378 140.14L57.3556 153.966L46.2109 164.578L47.4988 169.989L72.4937 139.546L59.9498 151.495Z" fill="#804E42"/>
<path d="M72.493 139.546L66.1963 145.545L49.6094 165.686L49.7085 167.296L72.493 139.546Z" fill="#613B32"/>
<path d="M34.9979 148.672C20.2189 147.966 9.53867 149.291 6.51723 148.672C2.88904 147.923 2.41848 140.066 9.15478 140.196C3.90443 134.809 11.0865 122.99 20.3923 130.692C23.7295 126.655 33.0167 129.509 30.2553 137.032C33.7163 135.174 38.2484 139.447 34.9546 143.595C38.2361 142.734 40.2669 148.92 34.9979 148.672Z" fill="#74A667"/>
<path d="M34.9304 143.576C38.2243 139.428 33.6921 135.187 30.2311 137.013C32.9925 129.491 23.7053 126.637 20.3681 130.673C15.5512 126.686 11.31 127.937 9.0625 130.803C11.4524 129.237 14.8763 129.144 18.6593 132.271C21.9903 128.234 31.2774 131.088 28.5222 138.611C31.9771 136.784 36.5154 141.026 33.2154 145.174C35.2833 144.635 36.8498 146.846 36.4535 148.523C39.8093 147.663 37.8837 142.827 34.9304 143.576Z" fill="#5D9667"/>
<path d="M8.48674 123.417C6.62931 123.417 5.91728 119.486 10.4742 120.024C7.05032 117.176 4.76569 108.39 11.6692 103.734C17.6563 99.6976 22.1946 105.059 22.3989 106.211C24.3802 102.496 32.0267 105.505 28.0703 111.87C30.8689 110.198 35.853 112.229 33.2959 117.764C37.3204 117.145 39.0911 123.077 35.0357 123.256C30.9803 123.436 10.3442 123.442 8.48674 123.417Z" fill="#74A667"/>
<path d="M33.3136 117.739C35.8707 112.204 30.8866 110.173 28.0881 111.845C32.0444 105.48 24.3732 102.496 22.4167 106.186C22.2124 105.059 17.674 99.6972 11.6869 103.709C9.76387 104.949 8.33732 106.825 7.65625 109.009C8.41585 107.875 9.39219 106.903 10.5291 106.149C16.5224 102.112 21.0546 107.474 21.2589 108.625C23.2401 104.91 30.8866 107.926 26.9303 114.284C29.735 112.613 34.7191 114.65 32.1558 120.185C33.0567 120.033 33.9809 120.244 34.7275 120.77C35.4741 121.297 35.9828 122.096 36.1431 122.996C38.7064 121.863 36.9109 117.163 33.3136 117.739Z" fill="#5D9667"/>
<path d="M43.6545 146.115C41.6732 144.301 42.8124 138.902 49.5116 140.655C45.0785 136.853 46.4592 127.591 55.474 127.033C53.2884 123.027 58.093 114.954 66.4514 114.88C77.045 114.793 79.404 124.037 77.6456 128.922C83.8742 127.937 90.9015 132.055 88.1153 139.447C92.728 137.664 95.3779 145.02 90.7529 146.227C84.3571 147.942 46.4406 148.66 43.6545 146.115Z" fill="#74A667"/>
<path d="M53.0212 142.016C48.5943 138.22 49.9688 128.952 58.9835 128.394C56.7794 124.382 61.6087 116.333 69.961 116.253C71.0757 116.236 72.1889 116.344 73.2796 116.575C71.2135 115.382 68.853 114.797 66.469 114.885C58.1105 114.959 53.306 123.033 55.4916 127.038C46.4768 127.59 45.0961 136.852 49.5292 140.66C42.83 138.907 41.6908 144.306 43.672 146.121C44.0683 146.48 45.1704 146.777 46.7678 147.012C45.3933 144.882 46.8297 140.4 53.0212 142.016Z" fill="#5D9667"/>
<path d="M18.2018 99.7718C16.0286 99.0474 16.0967 93.7166 20.2388 93.7723C18.078 90.8623 22.0962 85.5377 27.1794 89.6798C24.7957 83.3397 29.6064 76.2567 36.3799 76.0152C43.1533 75.7737 47.0478 80.7888 46.8311 86.2002C50.6883 82.5844 56.3535 87.9895 52.4034 92.0139C59.6969 90.8623 61.4181 99.035 56.7931 99.3756C52.5086 99.6975 19.341 100.15 18.2018 99.7718Z" fill="#74A667"/>
<path d="M21.9147 95.7905C19.7539 92.8806 23.7721 87.5559 28.8553 91.698C26.4716 85.3579 31.2824 78.2749 38.0558 78.0334C39.3815 77.9436 40.7119 78.116 41.9709 78.541C43.2299 78.966 44.3927 79.6351 45.3927 80.51C43.7086 77.7486 40.6005 75.854 36.3779 76.0088C29.6045 76.2503 24.7937 83.3333 27.1774 89.6734C22.1066 85.5313 18.076 90.8559 20.2368 93.7659C16.0947 93.7102 16.0266 99.0411 18.1998 99.7655C18.3032 99.7911 18.4091 99.8057 18.5156 99.8088C18.2432 98.038 19.1966 95.7534 21.9147 95.7905Z" fill="#5D9667"/>
<path d="M41.7342 108.582C39.5486 106.26 42.7496 101.771 46.6316 104.353C43.6164 99.2824 49.9689 93.4253 54.6124 98.4218C52.8603 93.159 57.2995 86.0388 65.7571 87.3205C74.2146 88.6021 73.8926 99.2019 71.769 102.093C79.2916 99.8334 79.564 109.164 75.942 109.956C71.7814 110.842 43.7774 110.761 41.7342 108.582Z" fill="#74A667"/>
<path d="M48.8372 106.353C45.822 101.283 52.1558 95.4131 56.818 100.422C55.0658 95.1593 59.5051 88.0391 67.9626 89.3145C69.0708 89.4701 70.1375 89.8425 71.1017 90.4104C70.4686 89.5594 69.6689 88.8461 68.7514 88.3139C67.8339 87.7817 66.8177 87.4417 65.7647 87.3147C57.3071 86.0764 52.8679 93.1532 54.62 98.416C49.9703 93.4256 43.6178 99.2828 46.633 104.354C42.751 101.772 39.5562 106.261 41.7356 108.582C42.189 108.911 42.7163 109.124 43.2711 109.201C42.8872 106.911 45.6362 104.217 48.8372 106.353Z" fill="#5D9667"/>
<path d="M40.7746 193.139C40.7728 192.517 40.7273 191.896 40.6384 191.281C40.4559 190.013 40.1827 188.759 39.8211 187.529C39.4682 186.291 39.1029 185.09 38.6818 183.889C38.6869 183.78 38.7014 183.672 38.7252 183.567C38.7623 183.356 38.8119 183.146 38.8614 182.947C38.9667 182.545 39.0843 182.136 39.171 181.709C39.3133 180.924 39.3259 180.121 39.2081 179.332C39.1534 178.894 39.0644 178.461 38.9419 178.038C38.9371 178.021 38.9269 178.006 38.913 177.995C38.899 177.985 38.882 177.979 38.8645 177.979C38.847 177.979 38.83 177.985 38.816 177.995C38.8021 178.006 38.7919 178.021 38.7871 178.038C38.5529 178.94 38.4016 179.863 38.3351 180.793C38.2886 181.531 38.3011 182.273 38.3723 183.009C38.0957 182.246 37.7923 181.497 37.4621 180.762C36.9247 179.536 36.2563 178.371 35.4685 177.288C35.4375 177.245 35.3632 177.288 35.3942 177.332C36.6567 179.362 37.6612 181.542 38.3847 183.82C38.6633 184.625 38.9171 185.436 39.1648 186.254C39.0971 186.203 39.0268 186.155 38.9543 186.111C38.5397 185.703 38.0832 185.34 37.5922 185.028C36.8819 184.538 36.0684 184.218 35.2146 184.093C34.6758 184.037 34.1342 184.012 33.5925 184.019C33.576 184.016 33.5592 184.019 33.5452 184.028C33.5311 184.037 33.5209 184.051 33.5163 184.067C33.5117 184.083 33.5132 184.1 33.5204 184.115C33.5276 184.13 33.54 184.142 33.5553 184.149C33.9763 184.378 34.3478 184.675 34.7503 184.941C35.1518 185.205 35.5871 185.413 36.0443 185.56C36.4492 185.696 36.8629 185.803 37.2826 185.882C37.6428 185.932 38.0003 186.001 38.3537 186.087C38.6374 186.156 38.9032 186.285 39.1338 186.464L39.2886 186.681C39.3382 186.854 39.3939 187.028 39.4434 187.201C39.8121 188.42 40.1036 189.66 40.3164 190.916C40.4301 191.613 40.5066 192.316 40.5455 193.021C40.5455 193.522 40.5455 194.036 40.595 194.544H40.787C40.7684 194.043 40.7746 193.591 40.7746 193.139Z" fill="#5D9667"/>
<path d="M31.921 176.923C31.6556 177.021 31.4208 177.188 31.24 177.406C31.2159 177.452 31.2027 177.502 31.2013 177.554C31.1999 177.606 31.2103 177.657 31.2318 177.705C31.2533 177.752 31.2853 177.793 31.3253 177.826C31.3654 177.859 31.4124 177.883 31.4628 177.895C31.6955 177.941 31.936 177.928 32.1625 177.858C32.7606 177.674 33.3237 177.392 33.828 177.022L33.6546 177.294C33.2794 177.893 33.0191 178.556 32.8869 179.251C32.8031 179.501 32.8209 179.775 32.9364 180.012C33.1222 180.241 33.3884 180.08 33.5556 179.926C34.0264 179.471 34.3517 178.887 34.4905 178.248C34.5648 177.938 34.6515 177.628 34.7319 177.319C34.7167 177.745 34.7354 178.171 34.7877 178.594C34.8419 179.225 35.0298 179.837 35.3387 180.39C35.4749 180.607 35.8712 181.151 36.125 180.761C36.2634 180.47 36.317 180.146 36.2798 179.826C36.2656 179.436 36.2138 179.049 36.125 178.669C35.9594 177.802 35.6019 176.983 35.0787 176.273H35.1468C35.2954 176.446 35.4254 176.638 35.5616 176.811C35.807 177.129 36.0695 177.432 36.3479 177.721C36.8315 178.322 37.4399 178.81 38.1311 179.152C38.3539 179.238 38.6945 179.387 38.9174 179.232C39.1403 179.077 39.0288 178.755 38.9483 178.557C38.579 177.839 38.0032 177.248 37.2952 176.861C36.9696 176.682 36.6248 176.541 36.2674 176.44C36.8543 176.48 37.4438 176.425 38.0134 176.279C38.2704 176.222 38.5183 176.131 38.7502 176.006C38.9126 175.925 39.0385 175.786 39.1031 175.616C39.1526 175.431 39.004 175.307 38.8493 175.245C38.5458 175.147 38.2253 175.113 37.9081 175.146C37.5927 175.174 37.2813 175.236 36.9794 175.331C36.4301 175.518 35.8925 175.737 35.3697 175.988C36.3913 175.369 37.5429 174.787 38.0691 173.666C38.1391 173.522 38.191 173.37 38.2239 173.214C38.2791 173.061 38.3104 172.9 38.3168 172.737C38.3168 172.421 37.9391 172.44 37.6976 172.508C37.3838 172.596 37.0924 172.75 36.8432 172.96C36.5591 173.23 36.3096 173.533 36.1003 173.864C35.8526 174.223 35.6173 174.588 35.382 174.948C35.2644 175.129 35.161 175.32 35.0725 175.517C35.0609 175.179 35.0173 174.844 34.9425 174.514C34.8641 173.879 34.6532 173.267 34.3233 172.719C34.2173 172.529 34.0608 172.373 33.8713 172.267C33.8311 172.251 33.7878 172.245 33.7448 172.249C33.7019 172.253 33.6605 172.267 33.6238 172.29C33.5872 172.313 33.5564 172.344 33.5338 172.381C33.5112 172.417 33.4975 172.459 33.4937 172.502C33.481 172.712 33.5105 172.923 33.5803 173.121C33.6484 173.449 33.698 173.74 33.7908 174.093C33.8866 174.48 34.0279 174.854 34.2118 175.208C34.2891 175.352 34.3739 175.493 34.4657 175.629L34.379 175.567C34.1252 175.381 33.8589 175.226 33.5927 175.065C33.142 174.755 32.6203 174.563 32.0758 174.508C31.9542 174.496 31.8316 174.513 31.7177 174.557C31.6038 174.601 31.5017 174.671 31.4195 174.762C31.3686 174.845 31.347 174.942 31.3583 175.039C31.3695 175.135 31.4129 175.225 31.4814 175.294C31.6363 175.484 31.8227 175.645 32.0325 175.771C32.2688 175.928 32.5249 176.053 32.794 176.143C32.9973 176.204 33.204 176.254 33.4132 176.291L32.9302 176.446C32.5822 176.579 32.2448 176.738 31.921 176.923ZM34.9672 175.932V175.901C34.9672 175.901 34.9672 175.92 34.9672 175.932Z" fill="white"/>
<path d="M35.6732 176.317C35.6828 176.169 35.6478 176.021 35.5727 175.893C35.4977 175.765 35.3861 175.663 35.2522 175.599C35.1544 175.557 35.049 175.536 34.9426 175.537C34.7734 175.531 34.606 175.573 34.4602 175.659C34.3145 175.745 34.1965 175.872 34.1202 176.023C34.044 176.174 34.0127 176.344 34.0301 176.512C34.0474 176.681 34.1127 176.841 34.2182 176.973C34.6826 177.518 35.6423 176.924 35.6732 176.317Z" fill="#EFA061"/>
<path d="M59.9375 194.674H60.2533C60.4452 194.296 60.6619 193.931 60.8724 193.572C61.1248 193.155 61.4217 192.767 61.7578 192.414C62.4519 191.794 63.1976 191.235 63.9867 190.742C64.0486 190.699 63.9867 190.588 63.9186 190.631C63.4604 190.928 62.9775 191.194 62.5193 191.498C62.1285 191.75 61.7654 192.043 61.4358 192.371C61.0901 192.751 60.785 193.166 60.5257 193.609C60.3276 193.95 60.1232 194.309 59.9375 194.674Z" fill="#5D9667"/>
<path d="M60.6875 190.352C61.3769 190.819 62.2043 191.037 63.034 190.971C62.8916 191.07 62.7554 191.188 62.6192 191.293C62.3641 191.47 62.1221 191.664 61.8948 191.875C61.8007 191.962 61.726 192.067 61.6758 192.184C61.6256 192.302 61.6011 192.429 61.6038 192.556C61.6061 192.638 61.6261 192.717 61.6624 192.79C61.6988 192.863 61.7506 192.927 61.8143 192.977C62.0806 193.132 62.4335 192.86 62.5945 192.699C62.9224 192.398 63.2133 192.059 63.4613 191.69C63.4613 191.851 63.4613 192.005 63.4613 192.142C63.4613 192.377 63.4613 192.606 63.4613 192.841C63.4379 193.135 63.4651 193.43 63.5417 193.714C63.6099 193.918 63.8823 194.5 64.1609 194.178C64.287 193.984 64.3457 193.753 64.3281 193.522C64.3375 193.257 64.3188 192.991 64.2723 192.73C64.229 192.426 64.198 192.111 64.1423 191.807C64.2228 191.912 64.3095 192.018 64.4024 192.117C64.6173 192.36 64.8468 192.589 65.0896 192.804C65.318 193.017 65.5742 193.198 65.8511 193.343C65.954 193.41 66.073 193.45 66.1959 193.456C66.3189 193.463 66.4414 193.436 66.5508 193.38C66.5583 193.37 66.5624 193.358 66.5624 193.346C66.5624 193.333 66.5583 193.321 66.5508 193.312C66.3334 192.732 65.971 192.219 65.4982 191.82C65.0811 191.452 64.6167 191.142 64.1175 190.897C64.3472 190.93 64.5791 190.945 64.811 190.94C65.1949 190.94 65.5725 190.94 65.9564 191.008C66.3403 191.077 66.7118 191.089 67.0956 191.12C67.3426 191.173 67.5979 191.173 67.8448 191.12C67.9686 191.077 68.0801 190.984 68.0429 190.841C68.0058 190.699 67.6962 190.47 67.5167 190.377C66.4765 189.838 65.3063 190.321 64.2352 190.538C64.7877 190.169 65.2984 189.742 65.7583 189.262C66.2733 188.753 66.6357 188.11 66.8046 187.405C66.8046 187.275 66.8542 187.046 66.6684 187.021C66.4827 186.996 66.3093 187.145 66.1793 187.238C65.6944 187.591 65.2894 188.043 64.9905 188.563C64.7862 188.91 64.6191 189.275 64.4209 189.622L64.099 190.191C64.0494 190.278 64.0061 190.365 63.9628 190.457C63.9999 190.173 64.0371 189.888 64.0556 189.603C64.1144 189.014 64.1144 188.421 64.0556 187.832C64.0123 187.448 63.9194 186.823 63.4736 186.699C63.4597 186.697 63.4454 186.699 63.433 186.706C63.4207 186.713 63.411 186.723 63.4055 186.736C63.1591 187.388 63.0886 188.092 63.2012 188.78C63.2487 189.127 63.3149 189.473 63.3993 189.814C63.4674 190.08 63.5355 190.358 63.6284 190.618C63.2357 190.304 62.7887 190.065 62.3096 189.913C62.0327 189.811 61.7465 189.736 61.4552 189.69C61.2163 189.64 60.9697 189.64 60.7308 189.69C60.6586 189.702 60.5909 189.733 60.5345 189.78C60.478 189.827 60.4347 189.887 60.4089 189.956C60.3965 190.098 60.5636 190.253 60.6875 190.352Z" fill="white"/>
<path d="M64.0547 190.068C64.195 190.108 64.3207 190.188 64.4164 190.298C64.5121 190.408 64.5736 190.543 64.5934 190.687C64.6027 190.835 64.5644 190.981 64.4841 191.105C64.4038 191.229 64.2858 191.323 64.1476 191.375C64.0536 191.393 63.9569 191.393 63.8628 191.375C63.7411 191.366 63.6227 191.331 63.5158 191.273C63.4089 191.214 63.316 191.132 63.2437 191.034C62.8412 190.496 63.4604 189.914 64.0547 190.068Z" fill="#EFA061"/>
<path d="M56.0694 193.56H56.2675C56.2675 193.436 56.2984 193.319 56.3108 193.195C56.3913 192.644 56.4842 192.086 56.5585 191.535C56.6328 190.984 56.7133 190.297 56.8309 189.721C57.0662 188.483 57.3696 187.288 57.7225 186.093C57.7249 186.084 57.7256 186.075 57.7244 186.066C57.7232 186.056 57.7203 186.048 57.7157 186.039C57.7111 186.031 57.7049 186.024 57.6976 186.019C57.6902 186.013 57.6819 186.009 57.6729 186.006C57.664 186.004 57.6547 186.003 57.6455 186.004C57.6363 186.006 57.6274 186.009 57.6193 186.013C57.6113 186.018 57.6042 186.024 57.5986 186.031C57.5929 186.039 57.5887 186.047 57.5863 186.056C57.3819 186.743 57.1714 187.424 56.9671 188.118C56.7628 188.811 56.6699 189.356 56.5585 189.975C56.447 190.594 56.3851 191.158 56.2984 191.752C56.2118 192.346 56.1189 192.885 56.0508 193.455C56.0755 193.492 56.0694 193.523 56.0694 193.56Z" fill="#5D9667"/>
<path d="M56.2422 192.681C56.2422 192.637 56.2422 192.594 56.2422 192.551C56.2502 192.569 56.2606 192.585 56.2731 192.6L56.2422 192.681Z" fill="#5D9667"/>
<path d="M53.9876 187.629C54.1238 188.099 54.7244 188.558 55.0154 188.948C55.295 189.334 55.5317 189.749 55.7212 190.186C56.0743 190.92 56.2563 191.724 56.2537 192.539C55.845 191.827 55.1206 191.381 54.6996 190.681C54.2113 189.739 53.9665 188.69 53.9876 187.629Z" fill="#5D9667"/>
<path d="M54.3903 186.403C55.2045 186.458 56.0216 186.458 56.8359 186.403C56.2343 186.587 55.6432 186.804 55.0651 187.053C54.8954 187.159 54.743 187.291 54.6132 187.443C54.5593 187.497 54.5172 187.562 54.4895 187.634C54.4618 187.705 54.4491 187.781 54.4522 187.858C54.4955 188.025 54.6936 188.068 54.8422 188.074C55.4061 188.029 55.9483 187.837 56.4149 187.517C56.7435 187.344 57.0457 187.125 57.3126 186.867C57.2631 187.047 57.2136 187.226 57.1764 187.406C57.1228 187.721 57.0999 188.04 57.1083 188.359C57.0979 188.665 57.1124 188.972 57.1517 189.276C57.1676 189.539 57.2674 189.791 57.4365 189.994C57.4516 190.005 57.4701 190.012 57.4891 190.012C57.5081 190.012 57.5266 190.005 57.5417 189.994C57.63 189.917 57.7002 189.822 57.7473 189.715C57.7944 189.608 57.8172 189.492 57.8141 189.375C57.8358 189.115 57.8358 188.854 57.8141 188.595C57.8141 188.143 57.8141 187.684 57.8141 187.232C57.9565 187.505 58.0866 187.777 58.2352 188.044C58.3704 188.284 58.5302 188.51 58.7119 188.718C58.857 188.91 59.0432 189.066 59.2567 189.177C59.684 189.338 59.684 188.774 59.6282 188.502C59.375 187.632 58.8252 186.878 58.0742 186.372L58.2352 186.459C58.3899 186.54 58.5491 186.612 58.7119 186.675C59.064 186.813 59.4263 186.922 59.7954 187.003C60.2584 187.132 60.7416 187.172 61.2194 187.121C61.3371 187.121 61.5104 187.071 61.5166 186.923C61.5228 186.774 61.3185 186.626 61.1947 186.545C60.7011 186.245 60.1428 186.066 59.5663 186.025C59.255 186.007 58.9428 186.007 58.6314 186.025C58.4253 186.04 58.2184 186.04 58.0123 186.025L58.2661 185.982L58.7862 185.883C59.1577 185.808 59.523 185.722 59.8883 185.635C60.2536 185.548 60.5074 185.474 60.8232 185.406C61.0921 185.376 61.3517 185.29 61.5847 185.152C61.6838 185.078 61.7271 184.966 61.5847 184.88C61.4899 184.825 61.3843 184.791 61.2752 184.781L60.8913 184.731C60.3035 184.716 59.7197 184.833 59.1825 185.072C58.8353 185.216 58.4982 185.384 58.1732 185.573C58.398 185.259 58.5909 184.923 58.749 184.57C58.909 184.271 59.0516 183.963 59.1763 183.648C59.2885 183.382 59.3372 183.093 59.3187 182.806C59.3187 182.669 59.2134 182.558 59.0648 182.576C58.9179 182.621 58.7868 182.707 58.6871 182.824C58.3772 183.15 58.1444 183.542 58.0061 183.97C57.8884 184.316 57.8018 184.669 57.6779 185.016C57.6779 185.072 57.6346 185.134 57.616 185.195C57.616 185.109 57.616 185.028 57.585 184.942C57.5355 184.576 57.4798 184.211 57.4303 183.84C57.3959 183.514 57.3168 183.196 57.195 182.892C57.1257 182.735 57.0362 182.587 56.9288 182.453C56.8782 182.373 56.8131 182.304 56.7368 182.248C56.4149 182.05 56.3901 182.62 56.3839 182.799C56.4052 183.393 56.518 183.98 56.7182 184.539C56.8111 184.824 56.9102 185.115 57.0278 185.394C56.8359 185.191 56.6289 185.002 56.4087 184.83C56.0115 184.531 55.5652 184.302 55.0899 184.155C54.9289 184.106 54.3655 184.05 54.4707 184.384C54.5512 184.582 54.8051 184.713 54.9784 184.818C55.2222 184.982 55.4743 185.132 55.7338 185.27C56.0541 185.426 56.3828 185.564 56.7182 185.685C56.544 185.636 56.3658 185.603 56.1858 185.586C55.8453 185.548 55.5047 185.542 55.158 185.536C54.8901 185.531 54.6224 185.554 54.3593 185.604C54.1621 185.633 53.9819 185.732 53.8516 185.883C53.6844 186.223 54.1921 186.353 54.3903 186.403Z" fill="white"/>
<path d="M57.565 185.443C57.669 185.462 57.768 185.503 57.8554 185.563C57.9428 185.622 58.0168 185.7 58.0727 185.79C58.1475 185.934 58.1676 186.101 58.1292 186.259C58.0909 186.417 57.9968 186.556 57.8642 186.65C57.7315 186.744 57.5693 186.787 57.4074 186.772C57.2455 186.756 57.0947 186.682 56.983 186.564C56.8875 186.444 56.8276 186.3 56.81 186.147C56.7925 185.995 56.8181 185.841 56.8839 185.703C56.983 185.443 57.3235 185.406 57.565 185.443Z" fill="#EFA061"/>
<path d="M58.9039 194.674H19.3652C19.4282 192.646 20.1086 190.684 21.3155 189.053C21.4975 188.755 21.7471 188.505 22.044 188.322C22.3409 188.139 22.6768 188.029 23.0244 188C23.7797 188.037 24.3184 188.724 24.7456 189.344L25.6929 190.724C26.0167 189.36 26.7034 188.108 27.6804 187.102C28.2465 186.421 29.0588 185.992 29.9402 185.907C30.9185 185.907 31.7977 186.526 32.4849 187.226C33.7846 188.466 34.9 189.886 35.7973 191.442C35.7936 191.01 35.9119 190.586 36.1386 190.218C36.3653 189.85 36.6913 189.553 37.079 189.362C37.4746 189.178 37.9048 189.079 38.3412 189.073C38.7776 189.066 39.2104 189.152 39.6113 189.325C39.591 189.18 39.6019 189.033 39.6432 188.892C39.6845 188.752 39.7553 188.622 39.8509 188.511C39.9464 188.401 40.0644 188.311 40.1972 188.25C40.3299 188.188 40.4742 188.156 40.6205 188.155C40.9213 188.165 41.2154 188.246 41.4789 188.391C41.7425 188.536 41.9681 188.742 42.1374 188.991C42.9918 188.316 43.5552 187.282 44.3725 186.57C45.9266 185.214 48.3598 184.768 50.0934 185.883C51.827 186.997 52.44 189.306 52.8672 191.368C53.2314 190.973 53.6874 190.673 54.195 190.496C54.7026 190.319 55.246 190.27 55.7772 190.353C56.3002 190.445 56.7933 190.662 57.2147 190.985C57.6361 191.309 57.9734 191.729 58.1981 192.21C58.5766 192.984 58.8155 193.818 58.9039 194.674Z" fill="#74A667"/>
<path d="M234.097 105.363L227.385 115.863L227.175 101.369L225.286 100.385L225.454 118.891L217.324 131.608L218.544 135.614L234.797 105.802L234.097 105.363Z" fill="#804E42"/>
<path d="M234.798 105.803L234.11 105.369L218.217 134.531L218.545 135.614L234.798 105.803Z" fill="#613B32"/>
<path d="M209.705 139.014L192.79 114.248L191.966 114.663L204.188 136.147L198.566 133.225L187.422 119.604C197.824 136.785 200.579 137.751 217.234 148.84L220.014 144.363L209.705 139.014Z" fill="#804E42"/>
<path d="M220.018 144.369L209.703 139.014L192.788 114.248L191.965 114.663L194.386 118.916L208.855 140.104L219.17 145.434L217.115 148.741L217.238 148.821L220.018 144.369Z" fill="#613B32"/>
<path d="M217.24 168.72L197.477 142.332L206.306 157.259L184.945 141.682L210.033 163.556L217.24 175.735V168.72Z" fill="#804E42"/>
<path d="M217.24 168.72L197.477 142.332L203.043 151.743L216.212 169.327V173.995L217.24 175.735V168.72Z" fill="#613B32"/>
<path d="M195.557 89.1846L214.626 110.106L216.961 117.219L195.557 89.1846Z" fill="#804E42"/>
<path d="M206.262 81.2031L219.053 116.278L223.177 194.674H211.271L214.924 116.686L206.262 81.2031Z" fill="#804E42"/>
<path d="M219.053 116.278L206.262 81.2031L210.348 97.9448L217.035 116.278L221.158 194.674H223.177L219.053 116.278Z" fill="#613B32"/>
<path d="M229.95 151.495L232.538 140.14L227.356 153.966L216.211 164.578L217.499 169.989L242.494 139.546L229.95 151.495Z" fill="#804E42"/>
<path d="M242.493 139.546L236.196 145.545L219.609 165.686L219.708 167.296L242.493 139.546Z" fill="#613B32"/>
<path d="M204.998 148.672C190.219 147.966 179.539 149.291 176.517 148.672C172.889 147.923 172.418 140.066 179.155 140.196C173.904 134.809 181.087 122.99 190.392 130.692C193.729 126.655 203.017 129.509 200.255 137.032C203.716 135.174 208.248 139.447 204.955 143.595C208.236 142.734 210.267 148.92 204.998 148.672Z" fill="#74A667"/>
<path d="M204.93 143.576C208.224 139.428 203.692 135.187 200.231 137.013C202.992 129.491 193.705 126.637 190.368 130.673C185.551 126.686 181.31 127.937 179.062 130.803C181.452 129.237 184.876 129.144 188.659 132.271C191.99 128.234 201.277 131.088 198.522 138.611C201.977 136.784 206.515 141.026 203.215 145.174C205.283 144.635 206.85 146.846 206.454 148.523C209.809 147.663 207.884 142.827 204.93 143.576Z" fill="#5D9667"/>
<path d="M178.487 123.417C176.629 123.417 175.917 119.486 180.474 120.024C177.05 117.176 174.766 108.39 181.669 103.734C187.656 99.6976 192.195 105.059 192.399 106.211C194.38 102.496 202.027 105.505 198.07 111.87C200.869 110.198 205.853 112.229 203.296 117.764C207.32 117.145 209.091 123.077 205.036 123.256C200.98 123.436 180.344 123.442 178.487 123.417Z" fill="#74A667"/>
<path d="M203.314 117.739C205.871 112.204 200.887 110.173 198.088 111.845C202.044 105.48 194.373 102.496 192.417 106.186C192.212 105.059 187.674 99.6972 181.687 103.709C179.764 104.949 178.337 106.825 177.656 109.009C178.416 107.875 179.392 106.903 180.529 106.149C186.522 102.112 191.055 107.474 191.259 108.625C193.24 104.91 200.887 107.926 196.93 114.284C199.735 112.613 204.719 114.65 202.156 120.185C203.057 120.033 203.981 120.244 204.727 120.77C205.474 121.297 205.983 122.096 206.143 122.996C208.706 121.863 206.911 117.163 203.314 117.739Z" fill="#5D9667"/>
<path d="M213.654 146.115C211.673 144.301 212.812 138.902 219.512 140.655C215.079 136.853 216.459 127.591 225.474 127.033C223.288 123.027 228.093 114.954 236.451 114.88C247.045 114.793 249.404 124.037 247.646 128.922C253.874 127.937 260.901 132.055 258.115 139.447C262.728 137.664 265.378 145.02 260.753 146.227C254.357 147.942 216.441 148.66 213.654 146.115Z" fill="#74A667"/>
<path d="M223.021 142.016C218.594 138.22 219.969 128.952 228.984 128.394C226.779 124.382 231.609 116.333 239.961 116.253C241.076 116.236 242.189 116.344 243.28 116.575C241.213 115.382 238.853 114.797 236.469 114.885C228.111 114.959 223.306 123.033 225.492 127.038C216.477 127.59 215.096 136.852 219.529 140.66C212.83 138.907 211.691 144.306 213.672 146.121C214.068 146.48 215.17 146.777 216.768 147.012C215.393 144.882 216.83 140.4 223.021 142.016Z" fill="#5D9667"/>
<path d="M188.202 99.7718C186.029 99.0474 186.097 93.7166 190.239 93.7723C188.078 90.8623 192.096 85.5377 197.179 89.6798C194.796 83.3397 199.606 76.2567 206.38 76.0152C213.153 75.7737 217.048 80.7888 216.831 86.2002C220.688 82.5844 226.354 87.9895 222.403 92.0139C229.697 90.8623 231.418 99.035 226.793 99.3756C222.509 99.6975 189.341 100.15 188.202 99.7718Z" fill="#74A667"/>
<path d="M191.915 95.7905C189.754 92.8806 193.772 87.5559 198.855 91.698C196.472 85.3579 201.282 78.2749 208.056 78.0334C209.382 77.9436 210.712 78.116 211.971 78.541C213.23 78.966 214.393 79.6351 215.393 80.51C213.709 77.7486 210.601 75.854 206.378 76.0088C199.604 76.2503 194.794 83.3333 197.177 89.6734C192.107 85.5313 188.076 90.8559 190.237 93.7659C186.095 93.7102 186.027 99.0411 188.2 99.7655C188.303 99.7911 188.409 99.8057 188.516 99.8088C188.243 98.038 189.197 95.7534 191.915 95.7905Z" fill="#5D9667"/>
<path d="M218.837 106.353C215.822 101.283 222.156 95.4131 226.818 100.422C225.066 95.1593 229.505 88.0391 237.963 89.3145C239.071 89.4701 240.137 89.8425 241.102 90.4104C240.469 89.5594 239.669 88.8461 238.751 88.3139C237.834 87.7817 236.818 87.4417 235.765 87.3147C227.307 86.0764 222.868 93.1532 224.62 98.416C219.97 93.4256 213.618 99.2828 216.633 104.354C212.751 101.772 209.556 106.261 211.736 108.582C212.189 108.911 212.716 109.124 213.271 109.201C212.887 106.911 215.636 104.217 218.837 106.353Z" fill="#5D9667"/>
<path d="M210.775 193.139C210.773 192.517 210.727 191.896 210.638 191.281C210.456 190.013 210.183 188.759 209.821 187.529C209.468 186.291 209.103 185.09 208.682 183.889C208.687 183.78 208.701 183.672 208.725 183.567C208.762 183.356 208.812 183.146 208.861 182.947C208.967 182.545 209.084 182.136 209.171 181.709C209.313 180.924 209.326 180.121 209.208 179.332C209.153 178.894 209.064 178.461 208.942 178.038C208.937 178.021 208.927 178.006 208.913 177.995C208.899 177.985 208.882 177.979 208.865 177.979C208.847 177.979 208.83 177.985 208.816 177.995C208.802 178.006 208.792 178.021 208.787 178.038C208.553 178.94 208.402 179.863 208.335 180.793C208.289 181.531 208.301 182.273 208.372 183.009C208.096 182.246 207.792 181.497 207.462 180.762C206.925 179.536 206.256 178.371 205.468 177.288C205.438 177.245 205.363 177.288 205.394 177.332C206.657 179.362 207.661 181.542 208.385 183.82C208.663 184.625 208.917 185.436 209.165 186.254C209.097 186.203 209.027 186.155 208.954 186.111C208.54 185.703 208.083 185.34 207.592 185.028C206.882 184.538 206.068 184.218 205.215 184.093C204.676 184.037 204.134 184.012 203.592 184.019C203.576 184.016 203.559 184.019 203.545 184.028C203.531 184.037 203.521 184.051 203.516 184.067C203.512 184.083 203.513 184.1 203.52 184.115C203.528 184.13 203.54 184.142 203.555 184.149C203.976 184.378 204.348 184.675 204.75 184.941C205.152 185.205 205.587 185.413 206.044 185.56C206.449 185.696 206.863 185.803 207.283 185.882C207.643 185.932 208 186.001 208.354 186.087C208.637 186.156 208.903 186.285 209.134 186.464L209.289 186.681C209.338 186.854 209.394 187.028 209.443 187.201C209.812 188.42 210.104 189.66 210.316 190.916C210.43 191.613 210.507 192.316 210.545 193.021C210.545 193.522 210.545 194.036 210.595 194.544H210.787C210.768 194.043 210.775 193.591 210.775 193.139Z" fill="#5D9667"/>
<path d="M201.921 176.923C201.656 177.021 201.421 177.188 201.24 177.406C201.216 177.452 201.203 177.502 201.201 177.554C201.2 177.606 201.21 177.657 201.232 177.705C201.253 177.752 201.285 177.793 201.325 177.826C201.365 177.859 201.412 177.883 201.463 177.895C201.695 177.941 201.936 177.928 202.162 177.858C202.761 177.674 203.324 177.392 203.828 177.022L203.655 177.294C203.279 177.893 203.019 178.556 202.887 179.251C202.803 179.501 202.821 179.775 202.936 180.012C203.122 180.241 203.388 180.08 203.556 179.926C204.026 179.471 204.352 178.887 204.49 178.248C204.565 177.938 204.651 177.628 204.732 177.319C204.717 177.745 204.735 178.171 204.788 178.594C204.842 179.225 205.03 179.837 205.339 180.39C205.475 180.607 205.871 181.151 206.125 180.761C206.263 180.47 206.317 180.146 206.28 179.826C206.266 179.436 206.214 179.049 206.125 178.669C205.959 177.802 205.602 176.983 205.079 176.273H205.147C205.295 176.446 205.425 176.638 205.562 176.811C205.807 177.129 206.069 177.432 206.348 177.721C206.831 178.322 207.44 178.81 208.131 179.152C208.354 179.238 208.694 179.387 208.917 179.232C209.14 179.077 209.029 178.755 208.948 178.557C208.579 177.839 208.003 177.248 207.295 176.861C206.97 176.682 206.625 176.541 206.267 176.44C206.854 176.48 207.444 176.425 208.013 176.279C208.27 176.222 208.518 176.131 208.75 176.006C208.913 175.925 209.039 175.786 209.103 175.616C209.153 175.431 209.004 175.307 208.849 175.245C208.546 175.147 208.225 175.113 207.908 175.146C207.593 175.174 207.281 175.236 206.979 175.331C206.43 175.518 205.893 175.737 205.37 175.988C206.391 175.369 207.543 174.787 208.069 173.666C208.139 173.522 208.191 173.37 208.224 173.214C208.279 173.061 208.31 172.9 208.317 172.737C208.317 172.421 207.939 172.44 207.698 172.508C207.384 172.596 207.092 172.75 206.843 172.96C206.559 173.23 206.31 173.533 206.1 173.864C205.853 174.223 205.617 174.588 205.382 174.948C205.264 175.129 205.161 175.32 205.072 175.517C205.061 175.179 205.017 174.844 204.942 174.514C204.864 173.879 204.653 173.267 204.323 172.719C204.217 172.529 204.061 172.373 203.871 172.267C203.831 172.251 203.788 172.245 203.745 172.249C203.702 172.253 203.66 172.267 203.624 172.29C203.587 172.313 203.556 172.344 203.534 172.381C203.511 172.417 203.497 172.459 203.494 172.502C203.481 172.712 203.51 172.923 203.58 173.121C203.648 173.449 203.698 173.74 203.791 174.093C203.887 174.48 204.028 174.854 204.212 175.208C204.289 175.352 204.374 175.493 204.466 175.629L204.379 175.567C204.125 175.381 203.859 175.226 203.593 175.065C203.142 174.755 202.62 174.563 202.076 174.508C201.954 174.496 201.832 174.513 201.718 174.557C201.604 174.601 201.502 174.671 201.42 174.762C201.369 174.845 201.347 174.942 201.358 175.039C201.37 175.135 201.413 175.225 201.481 175.294C201.636 175.484 201.823 175.645 202.032 175.771C202.269 175.928 202.525 176.053 202.794 176.143C202.997 176.204 203.204 176.254 203.413 176.291L202.93 176.446C202.582 176.579 202.245 176.738 201.921 176.923ZM204.967 175.932V175.901C204.967 175.901 204.967 175.92 204.967 175.932Z" fill="white"/>
<path d="M205.673 176.317C205.683 176.169 205.648 176.021 205.573 175.893C205.498 175.765 205.386 175.663 205.252 175.599C205.154 175.557 205.049 175.536 204.943 175.537C204.773 175.531 204.606 175.573 204.46 175.659C204.314 175.745 204.196 175.872 204.12 176.023C204.044 176.174 204.013 176.344 204.03 176.512C204.047 176.681 204.113 176.841 204.218 176.973C204.683 177.518 205.642 176.924 205.673 176.317Z" fill="#EFA061"/>
<path d="M229.938 194.674H230.253C230.445 194.296 230.662 193.931 230.872 193.572C231.125 193.155 231.422 192.767 231.758 192.414C232.452 191.794 233.198 191.235 233.987 190.742C234.049 190.699 233.987 190.588 233.919 190.631C233.46 190.928 232.977 191.194 232.519 191.498C232.129 191.75 231.765 192.043 231.436 192.371C231.09 192.751 230.785 193.166 230.526 193.609C230.328 193.95 230.123 194.309 229.938 194.674Z" fill="#5D9667"/>
<path d="M230.687 190.352C231.377 190.819 232.204 191.037 233.034 190.971C232.892 191.07 232.755 191.188 232.619 191.293C232.364 191.47 232.122 191.664 231.895 191.875C231.801 191.962 231.726 192.067 231.676 192.184C231.626 192.302 231.601 192.429 231.604 192.556C231.606 192.638 231.626 192.717 231.662 192.79C231.699 192.863 231.751 192.927 231.814 192.977C232.081 193.132 232.433 192.86 232.594 192.699C232.922 192.398 233.213 192.059 233.461 191.69C233.461 191.851 233.461 192.005 233.461 192.142C233.461 192.377 233.461 192.606 233.461 192.841C233.438 193.135 233.465 193.43 233.542 193.714C233.61 193.918 233.882 194.5 234.161 194.178C234.287 193.984 234.346 193.753 234.328 193.522C234.337 193.257 234.319 192.991 234.272 192.73C234.229 192.426 234.198 192.111 234.142 191.807C234.223 191.912 234.309 192.018 234.402 192.117C234.617 192.36 234.847 192.589 235.09 192.804C235.318 193.017 235.574 193.198 235.851 193.343C235.954 193.41 236.073 193.45 236.196 193.456C236.319 193.463 236.441 193.436 236.551 193.38C236.558 193.37 236.562 193.358 236.562 193.346C236.562 193.333 236.558 193.321 236.551 193.312C236.333 192.732 235.971 192.219 235.498 191.82C235.081 191.452 234.617 191.142 234.118 190.897C234.347 190.93 234.579 190.945 234.811 190.94C235.195 190.94 235.573 190.94 235.956 191.008C236.34 191.077 236.712 191.089 237.096 191.12C237.343 191.173 237.598 191.173 237.845 191.12C237.969 191.077 238.08 190.984 238.043 190.841C238.006 190.699 237.696 190.47 237.517 190.377C236.476 189.838 235.306 190.321 234.235 190.538C234.788 190.169 235.298 189.742 235.758 189.262C236.273 188.753 236.636 188.11 236.805 187.405C236.805 187.275 236.854 187.046 236.668 187.021C236.483 186.996 236.309 187.145 236.179 187.238C235.694 187.591 235.289 188.043 234.991 188.563C234.786 188.91 234.619 189.275 234.421 189.622L234.099 190.191C234.049 190.278 234.006 190.365 233.963 190.457C234 190.173 234.037 189.888 234.056 189.603C234.114 189.014 234.114 188.421 234.056 187.832C234.012 187.448 233.919 186.823 233.474 186.699C233.46 186.697 233.445 186.699 233.433 186.706C233.421 186.713 233.411 186.723 233.406 186.736C233.159 187.388 233.089 188.092 233.201 188.78C233.249 189.127 233.315 189.473 233.399 189.814C233.467 190.08 233.536 190.358 233.628 190.618C233.236 190.304 232.789 190.065 232.31 189.913C232.033 189.811 231.747 189.736 231.455 189.69C231.216 189.64 230.97 189.64 230.731 189.69C230.659 189.702 230.591 189.733 230.534 189.78C230.478 189.827 230.435 189.887 230.409 189.956C230.396 190.098 230.564 190.253 230.687 190.352Z" fill="white"/>
<path d="M234.055 190.068C234.195 190.108 234.321 190.188 234.416 190.298C234.512 190.408 234.574 190.543 234.593 190.687C234.603 190.835 234.564 190.981 234.484 191.105C234.404 191.229 234.286 191.323 234.148 191.375C234.054 191.393 233.957 191.393 233.863 191.375C233.741 191.366 233.623 191.331 233.516 191.273C233.409 191.214 233.316 191.132 233.244 191.034C232.841 190.496 233.46 189.914 234.055 190.068Z" fill="#EFA061"/>
<path d="M226.069 193.56H226.267C226.267 193.436 226.298 193.319 226.311 193.195C226.391 192.644 226.484 192.086 226.558 191.535C226.633 190.984 226.713 190.297 226.831 189.721C227.066 188.483 227.37 187.288 227.722 186.093C227.725 186.084 227.726 186.075 227.724 186.066C227.723 186.056 227.72 186.048 227.716 186.039C227.711 186.031 227.705 186.024 227.698 186.019C227.69 186.013 227.682 186.009 227.673 186.006C227.664 186.004 227.655 186.003 227.645 186.004C227.636 186.006 227.627 186.009 227.619 186.013C227.611 186.018 227.604 186.024 227.599 186.031C227.593 186.039 227.589 186.047 227.586 186.056C227.382 186.743 227.171 187.424 226.967 188.118C226.763 188.811 226.67 189.356 226.558 189.975C226.447 190.594 226.385 191.158 226.298 191.752C226.212 192.346 226.119 192.885 226.051 193.455C226.076 193.492 226.069 193.523 226.069 193.56Z" fill="#5D9667"/>
<path d="M226.242 192.681C226.242 192.637 226.242 192.594 226.242 192.551C226.25 192.569 226.261 192.585 226.273 192.6L226.242 192.681Z" fill="#5D9667"/>
<path d="M223.988 187.629C224.124 188.099 224.724 188.558 225.015 188.948C225.295 189.334 225.532 189.749 225.721 190.186C226.074 190.92 226.256 191.724 226.254 192.539C225.845 191.827 225.121 191.381 224.7 190.681C224.211 189.739 223.967 188.69 223.988 187.629Z" fill="#5D9667"/>
<path d="M224.39 186.403C225.205 186.458 226.022 186.458 226.836 186.403C226.234 186.587 225.643 186.804 225.065 187.053C224.895 187.159 224.743 187.291 224.613 187.443C224.559 187.497 224.517 187.562 224.489 187.634C224.462 187.705 224.449 187.781 224.452 187.858C224.496 188.025 224.694 188.068 224.842 188.074C225.406 188.029 225.948 187.837 226.415 187.517C226.743 187.344 227.046 187.125 227.313 186.867C227.263 187.047 227.214 187.226 227.176 187.406C227.123 187.721 227.1 188.04 227.108 188.359C227.098 188.665 227.112 188.972 227.152 189.276C227.168 189.539 227.267 189.791 227.436 189.994C227.452 190.005 227.47 190.012 227.489 190.012C227.508 190.012 227.527 190.005 227.542 189.994C227.63 189.917 227.7 189.822 227.747 189.715C227.794 189.608 227.817 189.492 227.814 189.375C227.836 189.115 227.836 188.854 227.814 188.595C227.814 188.143 227.814 187.684 227.814 187.232C227.957 187.505 228.087 187.777 228.235 188.044C228.37 188.284 228.53 188.51 228.712 188.718C228.857 188.91 229.043 189.066 229.257 189.177C229.684 189.338 229.684 188.774 229.628 188.502C229.375 187.632 228.825 186.878 228.074 186.372L228.235 186.459C228.39 186.54 228.549 186.612 228.712 186.675C229.064 186.813 229.426 186.922 229.795 187.003C230.258 187.132 230.742 187.172 231.219 187.121C231.337 187.121 231.51 187.071 231.517 186.923C231.523 186.774 231.319 186.626 231.195 186.545C230.701 186.245 230.143 186.066 229.566 186.025C229.255 186.007 228.943 186.007 228.631 186.025C228.425 186.04 228.218 186.04 228.012 186.025L228.266 185.982L228.786 185.883C229.158 185.808 229.523 185.722 229.888 185.635C230.254 185.548 230.507 185.474 230.823 185.406C231.092 185.376 231.352 185.29 231.585 185.152C231.684 185.078 231.727 184.966 231.585 184.88C231.49 184.825 231.384 184.791 231.275 184.781L230.891 184.731C230.303 184.716 229.72 184.833 229.182 185.072C228.835 185.216 228.498 185.384 228.173 185.573C228.398 185.259 228.591 184.923 228.749 184.57C228.909 184.271 229.052 183.963 229.176 183.648C229.288 183.382 229.337 183.093 229.319 182.806C229.319 182.669 229.213 182.558 229.065 182.576C228.918 182.621 228.787 182.707 228.687 182.824C228.377 183.15 228.144 183.542 228.006 183.97C227.888 184.316 227.802 184.669 227.678 185.016C227.678 185.072 227.635 185.134 227.616 185.195C227.616 185.109 227.616 185.028 227.585 184.942C227.536 184.576 227.48 184.211 227.43 183.84C227.396 183.514 227.317 183.196 227.195 182.892C227.126 182.735 227.036 182.587 226.929 182.453C226.878 182.373 226.813 182.304 226.737 182.248C226.415 182.05 226.39 182.62 226.384 182.799C226.405 183.393 226.518 183.98 226.718 184.539C226.811 184.824 226.91 185.115 227.028 185.394C226.836 185.191 226.629 185.002 226.409 184.83C226.011 184.531 225.565 184.302 225.09 184.155C224.929 184.106 224.365 184.05 224.471 184.384C224.551 184.582 224.805 184.713 224.978 184.818C225.222 184.982 225.474 185.132 225.734 185.27C226.054 185.426 226.383 185.564 226.718 185.685C226.544 185.636 226.366 185.603 226.186 185.586C225.845 185.548 225.505 185.542 225.158 185.536C224.89 185.531 224.622 185.554 224.359 185.604C224.162 185.633 223.982 185.732 223.852 185.883C223.684 186.223 224.192 186.353 224.39 186.403Z" fill="white"/>
<path d="M227.565 185.443C227.669 185.462 227.768 185.503 227.855 185.563C227.943 185.622 228.017 185.7 228.073 185.79C228.147 185.934 228.168 186.101 228.129 186.259C228.091 186.417 227.997 186.556 227.864 186.65C227.732 186.744 227.569 186.787 227.407 186.772C227.245 186.756 227.095 186.682 226.983 186.564C226.887 186.444 226.828 186.3 226.81 186.147C226.793 185.995 226.818 185.841 226.884 185.703C226.983 185.443 227.324 185.406 227.565 185.443Z" fill="#EFA061"/>
<path d="M228.904 194.674H189.365C189.428 192.646 190.109 190.684 191.316 189.053C191.497 188.755 191.747 188.505 192.044 188.322C192.341 188.139 192.677 188.029 193.024 188C193.78 188.037 194.318 188.724 194.746 189.344L195.693 190.724C196.017 189.36 196.703 188.108 197.68 187.102C198.246 186.421 199.059 185.992 199.94 185.907C200.918 185.907 201.798 186.526 202.485 187.226C203.785 188.466 204.9 189.886 205.797 191.442C205.794 191.01 205.912 190.586 206.139 190.218C206.365 189.85 206.691 189.553 207.079 189.362C207.475 189.178 207.905 189.079 208.341 189.073C208.778 189.066 209.21 189.152 209.611 189.325C209.591 189.18 209.602 189.033 209.643 188.892C209.685 188.752 209.755 188.622 209.851 188.511C209.946 188.401 210.064 188.311 210.197 188.25C210.33 188.188 210.474 188.156 210.62 188.155C210.921 188.165 211.215 188.246 211.479 188.391C211.743 188.536 211.968 188.742 212.137 188.991C212.992 188.316 213.555 187.282 214.373 186.57C215.927 185.214 218.36 184.768 220.093 185.883C221.827 186.997 222.44 189.306 222.867 191.368C223.231 190.973 223.687 190.673 224.195 190.496C224.703 190.319 225.246 190.27 225.777 190.353C226.3 190.445 226.793 190.662 227.215 190.985C227.636 191.309 227.973 191.729 228.198 192.21C228.577 192.984 228.816 193.818 228.904 194.674Z" fill="#74A667"/>
<path d="M211.734 108.582C209.549 106.26 212.75 101.771 216.632 104.353C213.616 99.2824 219.969 93.4253 224.612 98.4218C222.86 93.159 227.3 86.0388 235.757 87.3205C244.215 88.6021 243.893 99.2019 241.769 102.093C249.292 99.8334 249.564 109.164 245.942 109.956C241.781 110.842 213.777 110.761 211.734 108.582Z" fill="#74A667"/>
<path d="M170.945 33.9155C170.945 33.9155 175.317 24.8831 185.757 25.8866C185.757 25.8866 200.919 10.8335 217.089 23.8797C217.089 23.8797 234.276 20.6479 247.003 26.6793C255.49 30.6999 258.294 34.9176 258.294 34.9176L170.945 33.9155Z" fill="#F8FCFF"/>
<path d="M52.0332 56.4097C52.0332 56.4097 55.9106 49.6881 65.182 50.4349C65.182 50.4349 78.6414 39.2255 93.003 48.9426C93.003 48.9426 108.264 46.5359 119.56 51.0251C127.094 54.0179 129.582 57.1565 129.582 57.1565L52.0332 56.4097Z" fill="#F8FCFF"/>
<path d="M210.563 175.218C210.563 175.218 193.817 170.241 184.014 176.34C174.212 182.439 180.01 189.461 168.41 188.85C156.811 188.24 151.013 187.654 150.402 194.509H201.681L210.563 175.218Z" fill="#A8D29F"/>
<path d="M281.384 115.476H225.102V194.39H281.384V115.476Z" fill="#EEDED0"/>
<path d="M325.113 117.576V194.383H281.383V115.465H323.207C323.864 116.162 324.499 116.859 325.113 117.576Z" fill="#D7CEC6"/>
<path d="M292.279 89.6977L287.836 98.8543L285.87 102.894L285.807 103.059L285.725 103.202L285.664 103.325L285.562 103.53L285.521 103.631L283.575 107.621L283.472 107.826L283.227 108.358L279.765 115.465L278.967 117.124L277.841 119.42L277.246 120.649H221.234L225.105 115.632L225.228 115.467L250.421 82.86L250.441 82.8397H252.654L286.823 82.7168C288.02 85.0289 289.925 87.3626 292.279 89.6977Z" fill="#A49080"/>
<path d="M281.385 120.275V126.838L225.103 129.216V120.656H223.438L252.645 82.8291L281.385 120.275Z" fill="#EEDED0"/>
<path d="M330.244 122.757H280.349L277.829 119.418L274.86 115.465L251.49 84.3123L250.404 82.8578L250.281 82.6943H300.175L300.298 82.8578L301.384 84.3123L324.755 115.465L327.725 119.418L330.244 122.757Z" fill="#C9B09B"/>
<path d="M246.537 131.261L233.408 158.29H193.521L214.317 131.359L246.537 131.261Z" fill="#A49080"/>
<path d="M247.732 131.261L234.603 158.29H194.717L215.511 131.359L247.732 131.261Z" fill="#EEDED0"/>
<path d="M234.516 158.29V194.315L194.717 194.392V158.29H234.516Z" fill="#EEDED0"/>
<path d="M268.217 158.29H234.516V194.315H268.217V158.29Z" fill="#D7CEC6"/>
<path d="M271.922 159.887H235.717L214.316 131.357L225.102 131.36L249.899 131.366L271.922 159.887Z" fill="#C9B09B"/>
<path d="M246 109.004C245.999 108.015 246.292 107.047 246.841 106.225C247.39 105.402 248.171 104.761 249.084 104.382C249.998 104.003 251.003 103.903 251.973 104.096C252.943 104.288 253.835 104.764 254.534 105.463C255.234 106.162 255.71 107.053 255.904 108.023C256.097 108.993 255.998 109.999 255.62 110.913C255.241 111.826 254.601 112.608 253.778 113.157C252.956 113.707 251.989 114 251 114C250.344 114 249.693 113.872 249.087 113.621C248.48 113.37 247.929 113.002 247.465 112.538C247 112.074 246.632 111.523 246.381 110.916C246.129 110.31 246 109.66 246 109.004Z" fill="#C5B6AA"/>
<path d="M271.922 159.888H265.05L225.102 131.36L249.899 131.366L271.922 159.888Z" fill="#AF9A88"/>
<path d="M289.923 116.582H317.315L302.865 98.8613H275.473L289.923 116.582Z" fill="#2B478B"/>
<path d="M289.798 116.72H317.19L302.74 99H275.348L289.798 116.72Z" fill="#2B478B"/>
<path d="M279.201 103.528H306.593L306.423 103.32H279.031L279.201 103.528Z" fill="#AEC3FF"/>
<path d="M296.426 98.8594L310.875 116.581H311.084L296.634 98.8594H296.426Z" fill="#AEC3FF"/>
<path d="M289.168 98.8594L303.619 116.581H303.827L289.376 98.8594H289.168Z" fill="#AEC3FF"/>
<path d="M282.184 98.8594L296.634 116.581H296.842L282.393 98.8594H282.184Z" fill="#AEC3FF"/>
<path d="M282.781 107.827H310.173L310.003 107.617H282.611L282.781 107.827Z" fill="#AEC3FF"/>
<path d="M286.561 112.461H313.952L313.782 112.253H286.391L286.561 112.461Z" fill="#AEC3FF"/>
<path d="M300.985 104.291L301.143 103.439L299.592 102.584L299.436 103.439L300.985 104.291Z" fill="#AEC3FF"/>
<path d="M293.803 104.291L293.961 103.439L292.411 102.584L292.254 103.439L293.803 104.291Z" fill="#AEC3FF"/>
<path d="M286.717 104.291L286.874 103.439L285.325 102.584L285.168 103.439L286.717 104.291Z" fill="#AEC3FF"/>
<path d="M304.476 108.575L304.633 107.722L303.084 106.868L302.926 107.722L304.476 108.575Z" fill="#AEC3FF"/>
<path d="M297.297 108.575L297.453 107.722L295.904 106.868L295.746 107.722L297.297 108.575Z" fill="#AEC3FF"/>
<path d="M290.209 108.575L290.365 107.722L288.816 106.868L288.658 107.722L290.209 108.575Z" fill="#AEC3FF"/>
<path d="M308.256 113.211L308.414 112.357L306.865 111.504L306.707 112.357L308.256 113.211Z" fill="#AEC3FF"/>
<path d="M301.076 113.211L301.234 112.357L299.685 111.504L299.527 112.357L301.076 113.211Z" fill="#AEC3FF"/>
<path d="M293.989 113.211L294.147 112.357L292.597 111.504L292.439 112.357L293.989 113.211Z" fill="#AEC3FF"/>
<path d="M238.093 154.532H262.913L249.82 138.475H225L238.093 154.532Z" fill="#2B478B"/>
<path d="M228.506 142.566H253.326L253.172 142.377H228.352L228.506 142.566Z" fill="#AEC3FF"/>
<path d="M244.109 138.336L257.203 154.394H257.392L244.298 138.336H244.109Z" fill="#AEC3FF"/>
<path d="M237.535 138.336L250.629 154.394H250.818L237.724 138.336H237.535Z" fill="#AEC3FF"/>
<path d="M231.207 138.336L244.299 154.394H244.488L231.395 138.336H231.207Z" fill="#AEC3FF"/>
<path d="M231.748 146.459H256.568L256.414 146.27H231.594L231.748 146.459Z" fill="#AEC3FF"/>
<path d="M235.173 150.66H259.994L259.84 150.471H235.02L235.173 150.66Z" fill="#AEC3FF"/>
<path d="M248.243 143.257L248.386 142.485L246.982 141.711L246.84 142.485L248.243 143.257Z" fill="#AEC3FF"/>
<path d="M241.735 143.257L241.878 142.485L240.474 141.711L240.332 142.485L241.735 143.257Z" fill="#AEC3FF"/>
<path d="M235.315 143.257L235.458 142.485L234.053 141.711L233.91 142.485L235.315 143.257Z" fill="#AEC3FF"/>
<path d="M251.405 147.14L251.548 146.366L250.143 145.592L250 146.366L251.405 147.14Z" fill="#AEC3FF"/>
<path d="M244.899 147.14L245.042 146.366L243.638 145.592L243.496 146.366L244.899 147.14Z" fill="#AEC3FF"/>
<path d="M238.479 147.14L238.622 146.366L237.217 145.592L237.074 146.366L238.479 147.14Z" fill="#AEC3FF"/>
<path d="M254.83 151.337L254.972 150.565L253.569 149.791L253.426 150.565L254.83 151.337Z" fill="#AEC3FF"/>
<path d="M248.326 151.337L248.47 150.565L247.065 149.791L246.922 150.565L248.326 151.337Z" fill="#AEC3FF"/>
<path d="M241.905 151.337L242.046 150.565L240.643 149.791L240.5 150.565L241.905 151.337Z" fill="#AEC3FF"/>
<path d="M341.398 161.571H341.384C336.019 160.525 330.577 159.925 325.113 159.776C320.304 159.631 315.49 159.818 310.707 160.337L310.153 160.397C309.613 160.461 309.063 160.532 308.512 160.6C307.31 160.757 306.092 160.937 304.858 161.14C304.49 161.202 304.126 161.266 303.755 161.333C303.36 161.403 302.963 161.477 302.564 161.555C301.711 161.72 300.85 161.9 299.982 162.095C299.601 162.179 299.219 162.266 298.836 162.357C298.452 162.445 298.068 162.538 297.682 162.627C297.215 162.743 296.746 162.862 296.276 162.985L295.837 163.102C295.407 163.219 294.975 163.338 294.541 163.46C292.79 163.956 291.022 164.513 289.237 165.131C286.312 166.141 283.714 167.136 281.391 168.102C278.442 169.33 275.937 170.517 273.772 171.639C271.634 172.744 269.819 173.8 268.226 174.772C259.59 180.085 257.461 183.359 245.68 182.441C244.631 182.361 243.625 182.329 242.663 182.342C239.508 182.383 236.81 182.892 234.512 183.676C229.907 185.248 226.916 187.932 225.096 190.171C223.597 192.016 222.892 193.558 222.734 193.928C222.71 193.984 222.699 194.013 222.699 194.013H327.546C329.493 191.924 337.296 183.301 340.287 169.804C340.88 167.127 341.248 164.406 341.387 161.668L341.398 161.571Z" fill="#A8D29F"/>
<path d="M118.164 69.0741C118.164 69.0741 120.039 65.0482 124.521 65.4952C124.521 65.4952 131.029 58.7844 137.968 64.5998C137.968 64.5998 145.345 63.1588 150.808 65.8477C154.454 67.6412 155.654 69.5211 155.654 69.5211L118.164 69.0741Z" fill="#F8FCFF"/>
<path d="M330 194.42V194.566C330.001 194.623 329.991 194.68 329.973 194.733C329.954 194.786 329.926 194.834 329.891 194.874C329.855 194.915 329.813 194.946 329.767 194.968C329.721 194.99 329.671 195.001 329.621 195H0.37486C0.275749 195 0.180769 194.955 0.110572 194.875C0.0403757 194.795 0.000638925 194.687 0 194.573V194.427C0.000638925 194.313 0.0403757 194.205 0.110572 194.125C0.180769 194.045 0.275749 194 0.37486 194H329.621C329.72 193.999 329.815 194.042 329.886 194.121C329.957 194.2 329.998 194.307 330 194.42Z" fill="#233862"/>
<path d="M214.042 168H215.187C216.994 168 218.727 168.748 220.004 170.081C221.282 171.413 222 173.22 222 175.104V194H207V175.337C207.001 173.39 207.744 171.524 209.064 170.149C210.385 168.773 212.175 168 214.042 168Z" fill="#C5B6AA"/>
<path d="M119.261 185.002C119.404 185.002 119.541 184.945 119.643 184.844C119.744 184.743 119.801 184.605 119.801 184.462C119.8 182.468 119.311 180.505 118.377 178.744C117.444 176.982 116.094 175.476 114.445 174.355C112.796 173.234 110.898 172.534 108.917 172.315C106.935 172.095 104.93 172.363 103.076 173.096C102.942 173.15 102.835 173.255 102.778 173.387C102.721 173.52 102.72 173.67 102.773 173.804C102.827 173.938 102.932 174.045 103.065 174.102C103.197 174.158 103.347 174.16 103.481 174.106C105.171 173.437 106.998 173.192 108.804 173.392C110.61 173.591 112.34 174.229 113.843 175.251C115.346 176.272 116.576 177.645 117.427 179.251C118.277 180.857 118.722 182.646 118.722 184.463C118.722 184.606 118.779 184.743 118.88 184.844C118.981 184.945 119.118 185.002 119.261 185.002Z" fill="#2C3A64"/>
<path d="M109.423 184.458C109.423 184.099 109.317 183.749 109.118 183.451C108.919 183.154 108.636 182.921 108.305 182.784C107.974 182.647 107.61 182.611 107.259 182.681C106.907 182.751 106.585 182.924 106.331 183.177C106.078 183.43 105.905 183.753 105.836 184.104C105.766 184.456 105.802 184.82 105.939 185.151C106.076 185.482 106.308 185.764 106.606 185.963C106.904 186.162 107.254 186.269 107.612 186.269C107.85 186.269 108.085 186.222 108.305 186.131C108.525 186.04 108.725 185.907 108.893 185.739C109.061 185.57 109.194 185.371 109.285 185.151C109.376 184.931 109.423 184.695 109.423 184.458Z" fill="#415DA5"/>
<path d="M110.646 175.741L107.578 184.291L107.809 184.374L110.878 175.824L110.646 175.741Z" fill="#415DA5"/>
<path d="M116.278 188.313L116.375 188.087L107.694 184.358L101.986 176.205L101.785 176.347L107.533 184.557L107.564 184.57L116.278 188.313Z" fill="#415DA5"/>
<path d="M111.055 193.885L111.288 193.807C111.226 193.623 107.87 184.79 107.727 184.414L107.64 184.185L102.238 192.737L102.446 192.873L107.592 184.736C108.819 187.966 111.009 193.745 111.055 193.885Z" fill="#415DA5"/>
<path d="M117.231 182.06L107.598 183.717L107.639 183.959L117.273 182.302L117.231 182.06Z" fill="#415DA5"/>
<path d="M104.28 175.299L104.047 175.377L106.87 183.844L107.103 183.767L104.28 175.299Z" fill="#415DA5"/>
<path d="M107.633 184.587L107.668 184.568L116.505 180.089L116.394 179.869L107.594 184.331L98.1226 182.742L98.082 182.985L107.633 184.587Z" fill="#415DA5"/>
<path d="M104.05 193.578C104.101 193.424 106.369 187.845 107.638 184.725L112.542 192.439L112.75 192.304L107.591 184.188L107.501 184.408C107.353 184.771 103.879 193.31 103.816 193.497L104.05 193.578Z" fill="#415DA5"/>
<path d="M107.63 184.335L107.594 184.578L117.104 185.988L117.14 185.744L107.63 184.335Z" fill="#415DA5"/>
<path d="M113.143 178.953L107.832 184.988L108.016 185.151L113.327 179.116L113.143 178.953Z" fill="#415DA5"/>
<path d="M107.44 185.108L107.195 185.128L107.935 194.026L108.18 194.005L107.44 185.108Z" fill="#415DA5"/>
<path d="M107.973 183.86L99.5664 189.689L99.7065 189.891L108.113 184.062L107.973 183.86Z" fill="#415DA5"/>
<path d="M114.581 191.048L114.755 190.875L107.734 183.794V174.578H107.488V183.894L114.581 191.048Z" fill="#415DA5"/>
<path d="M116.23 178.266C116.034 177.996 115.825 177.726 115.605 177.48C114.764 176.518 113.758 175.715 112.634 175.108C112.14 174.842 111.625 174.616 111.094 174.433C109.618 173.92 108.047 173.74 106.493 173.905C104.349 174.132 102.326 175.009 100.694 176.417C99.1631 177.733 98.0395 179.458 97.4548 181.39C96.8702 183.322 96.8487 185.38 97.393 187.324C97.6262 188.162 97.9628 188.967 98.3951 189.721C98.4073 189.746 98.4221 189.768 98.4356 189.793C99.254 191.203 100.386 192.405 101.745 193.306C103.103 194.208 104.651 194.784 106.269 194.99C106.712 195.046 107.158 195.075 107.604 195.075C108.06 195.075 108.514 195.046 108.966 194.988C110.788 194.753 112.517 194.048 113.985 192.944C115.453 191.84 116.61 190.373 117.341 188.688C118.072 187.002 118.353 185.156 118.156 183.329C117.96 181.503 117.292 179.759 116.219 178.267L116.23 178.266ZM116.06 187.953C116.03 188.029 115.998 188.105 115.963 188.179C115.577 189.042 115.059 189.84 114.429 190.545C114.375 190.607 114.319 190.668 114.263 190.727C113.77 191.249 113.218 191.711 112.619 192.105C112.551 192.151 112.484 192.194 112.412 192.24C111.954 192.524 111.472 192.767 110.971 192.965L110.742 193.053C109.902 193.361 109.021 193.543 108.128 193.593C108.046 193.593 107.965 193.601 107.883 193.604C107.8 193.607 107.703 193.604 107.613 193.604C106.475 193.604 105.347 193.392 104.287 192.979C104.211 192.95 104.135 192.919 104.059 192.888C103.691 192.732 103.333 192.551 102.988 192.348L102.83 192.252C102.76 192.21 102.695 192.167 102.624 192.117C101.683 191.504 100.863 190.723 100.203 189.813C100.162 189.755 100.12 189.696 100.079 189.636C100.039 189.577 99.9861 189.501 99.9442 189.431C99.8605 189.305 99.7821 189.178 99.7065 189.049C98.8978 187.653 98.4715 186.069 98.4708 184.457C98.4708 183.991 98.506 183.525 98.5761 183.064L98.6166 182.823C99.0426 180.496 100.353 178.424 102.273 177.041C102.339 176.992 102.408 176.945 102.474 176.906C103.032 176.526 103.631 176.209 104.259 175.961L104.49 175.874C105.452 175.523 106.467 175.338 107.491 175.326H107.739C108.697 175.337 109.647 175.5 110.554 175.808L110.621 175.832C110.7 175.859 110.775 175.888 110.852 175.916C111.251 176.069 111.639 176.25 112.013 176.456C112.396 176.668 112.764 176.906 113.113 177.171C113.179 177.219 113.248 177.269 113.306 177.322C113.648 177.594 113.971 177.89 114.271 178.208C114.564 178.519 114.835 178.851 115.081 179.201C115.315 179.528 115.525 179.872 115.712 180.228C115.751 180.301 115.789 180.374 115.824 180.447C116.102 181.01 116.32 181.601 116.476 182.21C116.495 182.289 116.515 182.369 116.533 182.45C116.773 183.513 116.822 184.611 116.677 185.691C116.666 185.772 116.654 185.855 116.641 185.934C116.527 186.627 116.332 187.305 116.06 187.952V187.953Z" fill="#202E51"/>
<path d="M133.311 166.252L127.072 185.766L128.125 186.102L134.363 166.589L133.311 166.252Z" fill="#739CF3"/>
<path d="M128.645 186.154L143.37 184.873L116.062 166.41L117.625 169.608L140.17 184.043L128.551 185.053L128.645 186.154Z" fill="#739CF3"/>
<path d="M126.663 185.289L127.59 184.689L116.261 166.539L114.941 167.904L126.663 185.289Z" fill="#739CF3"/>
<path d="M108.494 183.971L114.804 170.465L113.953 170.124C113.822 170.071 113.683 170.045 113.542 170.047C113.401 170.049 113.262 170.078 113.133 170.134C113.004 170.189 112.887 170.27 112.789 170.371C112.691 170.472 112.614 170.591 112.562 170.722L107.465 183.552L108.494 183.971Z" fill="#415DA5"/>
<path d="M114.803 170.467C115.716 168.099 117.234 164.376 117.215 164.413L116.297 163.8C116.252 163.867 116.223 163.912 113.828 170.126L114.803 170.467Z" fill="#415DA5"/>
<path d="M120.1 165.706C120.23 165.527 120.304 165.312 120.311 165.091C120.319 164.869 120.261 164.65 120.145 164.462C120.028 164.273 119.858 164.123 119.657 164.031C119.455 163.939 119.231 163.909 119.012 163.944C118.793 163.98 118.589 164.079 118.427 164.231C118.265 164.382 118.151 164.578 118.1 164.793C118.049 165.009 118.064 165.235 118.141 165.443C118.219 165.651 118.356 165.831 118.536 165.96C118.777 166.134 119.078 166.205 119.371 166.157C119.664 166.109 119.926 165.947 120.1 165.706Z" fill="#415DA5"/>
<path d="M115.859 162.773C115.988 162.594 116.061 162.379 116.069 162.158C116.076 161.937 116.018 161.718 115.901 161.53C115.785 161.342 115.615 161.192 115.413 161.101C115.212 161.009 114.988 160.979 114.769 161.015C114.551 161.05 114.348 161.15 114.186 161.301C114.024 161.452 113.91 161.648 113.86 161.864C113.809 162.079 113.824 162.305 113.901 162.512C113.979 162.72 114.116 162.899 114.296 163.029C114.537 163.202 114.837 163.272 115.13 163.225C115.423 163.177 115.685 163.014 115.859 162.773Z" fill="#415DA5"/>
<path d="M114.766 163.17L119.045 165.893L119.638 164.725L115.36 162.002L114.766 163.17Z" fill="#415DA5"/>
<path d="M121.809 188.754H124.202C124.337 188.753 124.467 188.699 124.563 188.603C124.658 188.507 124.712 188.377 124.712 188.242C124.712 188.107 124.658 187.977 124.562 187.881C124.467 187.786 124.337 187.732 124.202 187.731H121.809C121.673 187.732 121.544 187.786 121.448 187.881C121.352 187.977 121.298 188.107 121.297 188.242C121.298 188.377 121.352 188.507 121.448 188.603C121.543 188.699 121.673 188.753 121.809 188.754Z" fill="#415DA5"/>
<path d="M127.652 185.526L122.805 187.734L122.983 188.125L127.83 185.916L127.652 185.526Z" fill="#415DA5"/>
<path d="M143.581 184.458C143.581 184.099 143.475 183.749 143.276 183.451C143.077 183.154 142.794 182.921 142.463 182.784C142.132 182.647 141.768 182.611 141.417 182.681C141.065 182.751 140.743 182.924 140.489 183.177C140.236 183.43 140.064 183.753 139.994 184.104C139.924 184.456 139.96 184.82 140.097 185.151C140.234 185.482 140.466 185.764 140.764 185.963C141.062 186.162 141.412 186.269 141.77 186.269C142.25 186.269 142.711 186.078 143.051 185.738C143.39 185.399 143.581 184.938 143.581 184.458Z" fill="#415DA5"/>
<path d="M144.802 175.741L141.734 184.291L141.966 184.374L145.034 175.824L144.802 175.741Z" fill="#415DA5"/>
<path d="M150.434 188.313L150.531 188.087L141.85 184.358L136.143 176.205L135.941 176.347L141.689 184.557L141.72 184.57L150.434 188.313Z" fill="#415DA5"/>
<path d="M145.211 193.885L145.444 193.807C145.382 193.623 142.026 184.79 141.883 184.414L141.797 184.185L136.395 192.737L136.603 192.873L141.748 184.736C142.97 187.966 145.165 193.745 145.211 193.885Z" fill="#415DA5"/>
<path d="M151.391 182.057L141.758 183.714L141.799 183.956L151.433 182.299L151.391 182.057Z" fill="#415DA5"/>
<path d="M138.442 175.297L138.209 175.375L141.032 183.842L141.265 183.765L138.442 175.297Z" fill="#415DA5"/>
<path d="M141.789 184.587L141.824 184.568L150.661 180.089L150.55 179.869L141.75 184.331L132.279 182.742L132.238 182.985L141.789 184.587Z" fill="#415DA5"/>
<path d="M138.205 193.578C138.258 193.424 140.525 187.845 141.795 184.725L146.698 192.439L146.906 192.304L141.746 184.188L141.657 184.408C141.51 184.771 138.035 193.31 137.973 193.497L138.205 193.578Z" fill="#415DA5"/>
<path d="M141.794 184.341L141.758 184.584L151.268 185.998L151.304 185.755L141.794 184.341Z" fill="#415DA5"/>
<path d="M147.445 176.954L142.168 183.028L142.354 183.19L147.63 177.115L147.445 176.954Z" fill="#415DA5"/>
<path d="M141.591 185.116L141.346 185.137L142.085 194.033L142.33 194.013L141.591 185.116Z" fill="#415DA5"/>
<path d="M142.129 183.86L133.723 189.689L133.863 189.891L142.269 184.062L142.129 183.86Z" fill="#415DA5"/>
<path d="M148.741 191.048L148.916 190.875L141.894 183.794V174.578H141.648V183.894L148.741 191.048Z" fill="#415DA5"/>
<path d="M141.773 173.842C138.959 173.844 136.26 174.963 134.27 176.953C132.279 178.944 131.16 181.642 131.158 184.457C131.158 184.58 131.158 184.703 131.158 184.826C131.217 186.566 131.704 188.265 132.575 189.773C133.447 191.28 134.676 192.55 136.155 193.469C136.236 193.52 136.319 193.57 136.401 193.619C137.808 194.443 139.387 194.932 141.013 195.048C142.64 195.164 144.272 194.903 145.782 194.286C147.292 193.67 148.639 192.713 149.72 191.491C150.8 190.27 151.585 188.815 152.012 187.241C152.44 185.667 152.499 184.016 152.185 182.416C151.871 180.815 151.193 179.308 150.203 178.013C149.212 176.717 147.937 175.666 146.475 174.943C145.013 174.22 143.404 173.843 141.773 173.842ZM150.218 187.951C150.189 188.026 150.156 188.102 150.121 188.176C149.735 189.04 149.218 189.838 148.587 190.542C148.533 190.605 148.477 190.665 148.421 190.725C147.928 191.246 147.377 191.709 146.777 192.102C146.71 192.148 146.642 192.191 146.57 192.237C146.113 192.521 145.63 192.764 145.129 192.963L144.9 193.05C144.06 193.358 143.179 193.54 142.285 193.591C142.204 193.591 142.122 193.599 142.041 193.601C141.96 193.604 141.861 193.601 141.771 193.601C140.633 193.602 139.505 193.39 138.446 192.976C138.369 192.948 138.293 192.917 138.217 192.886C137.849 192.729 137.491 192.549 137.146 192.345L136.988 192.25C136.918 192.208 136.853 192.164 136.782 192.114C135.783 191.462 134.921 190.62 134.244 189.638C134.197 189.57 134.151 189.503 134.109 189.432C134.025 189.307 133.947 189.18 133.871 189.05C133.289 188.049 132.903 186.945 132.736 185.798C132.681 185.434 132.649 185.066 132.64 184.697C132.64 184.618 132.64 184.537 132.64 184.457C132.64 183.991 132.675 183.525 132.745 183.065L132.786 182.823C132.967 181.82 133.317 180.855 133.82 179.969C134.031 179.592 134.27 179.231 134.535 178.889C135.077 178.183 135.72 177.561 136.441 177.04C136.508 176.991 136.577 176.944 136.643 176.905C137.201 176.525 137.8 176.208 138.428 175.959L138.659 175.873C139.238 175.661 139.836 175.51 140.446 175.421C140.848 175.362 141.254 175.33 141.661 175.325H141.907C142.889 175.336 143.863 175.507 144.79 175.831C144.869 175.858 144.944 175.886 145.021 175.915C145.831 176.222 146.592 176.643 147.282 177.165C147.348 177.214 147.417 177.264 147.475 177.317C148.47 178.108 149.289 179.098 149.881 180.223C149.92 180.296 149.958 180.369 149.993 180.442C150.27 181.005 150.489 181.596 150.645 182.204C150.664 182.284 150.684 182.364 150.7 182.445C150.941 183.508 150.991 184.605 150.846 185.686C150.835 185.767 150.823 185.849 150.81 185.929C150.693 186.624 150.495 187.303 150.218 187.951Z" fill="#202E51"/>
<path d="M133.12 173.565C133.197 173.593 133.279 173.603 133.36 173.594C133.441 173.586 133.519 173.559 133.589 173.516C138.555 170.517 145.427 171.643 147.415 172.06C147.441 172.066 147.468 172.065 147.493 172.059C147.519 172.053 147.542 172.041 147.563 172.025C147.583 172.008 147.6 171.987 147.611 171.963C147.622 171.94 147.628 171.914 147.627 171.887V171.5C147.628 171.356 147.576 171.217 147.483 171.108C147.389 171 147.259 170.928 147.117 170.907C146.036 170.746 143.53 170.403 142.12 170.396H142.007C138.862 170.396 136.148 170.96 133.917 172.071C133.691 172.183 133.445 172.249 133.194 172.265C132.943 172.28 132.691 172.245 132.453 172.162L131.841 171.947C131.674 171.889 131.49 171.898 131.33 171.974C131.17 172.05 131.046 172.186 130.985 172.352C130.966 172.406 130.958 172.463 130.962 172.52C130.965 172.577 130.98 172.633 131.005 172.684C131.03 172.736 131.065 172.782 131.108 172.819C131.151 172.857 131.201 172.886 131.255 172.904L133.12 173.565Z" fill="#F99746"/>
<path d="M137.736 166.004C137.736 166.004 137.936 165.099 137.368 165.037C136.799 164.975 134.73 165.421 134.178 165.36C133.625 165.299 130.741 164.82 130.236 165.314C129.731 165.808 129.944 166.234 130.955 166.326C131.967 166.417 133.319 166.586 133.702 166.909C134.086 167.232 136.861 168.183 137.736 166.004Z" fill="#F99746"/>
<path d="M127.598 188.693C129.123 188.693 130.36 187.456 130.36 185.931C130.36 184.405 129.123 183.169 127.598 183.169C126.072 183.169 124.836 184.405 124.836 185.931C124.836 187.456 126.072 188.693 127.598 188.693Z" fill="#2C3A64"/>
<path d="M128.631 183.001L129.847 182.763C129.847 182.763 126.938 171.254 127.336 170.304C127.659 169.516 131.014 168.946 132.657 167.567C132.991 167.306 133.255 166.967 133.427 166.58C134.302 164.44 132.876 162.854 132.876 162.854C130.934 163.32 129.031 163.936 127.184 164.697C125.255 165.524 123.468 166.599 122.974 167.842C121.788 170.855 128.631 183.001 128.631 183.001Z" fill="#E8945B"/>
<path d="M125.319 184.776C125.331 184.714 125.356 184.655 125.394 184.605C125.431 184.554 125.48 184.513 125.535 184.484C125.826 184.325 126.419 184.095 126.862 183.502C127.111 183.17 128.143 182.184 128.143 182.184C128.169 182.184 128.304 182.184 128.954 182.454C129.291 182.589 129.642 181.957 129.642 181.957C129.721 181.993 129.792 182.044 129.85 182.107C129.95 182.21 130.008 182.345 130.015 182.488C130.033 182.731 130.285 183.128 130.473 183.391C130.586 183.551 130.677 183.661 130.677 183.661C130.677 183.661 130.747 183.796 130.172 184.017L129.484 184.195C129.245 184.222 129.06 184.207 128.809 184.241C128.44 184.292 128.308 184.465 128.282 184.511L125.359 185.267C125.276 185.185 125.291 184.951 125.319 184.776Z" fill="#415DA5"/>
<path d="M118.302 162.759C118.302 162.759 117.398 161.613 116.904 161.754C116.641 161.82 116.408 161.973 116.244 162.188C116.079 162.404 115.994 162.669 116 162.94C116.022 163.099 116.011 163.726 116.391 163.86C116.551 163.909 116.72 163.918 116.885 163.888C117.05 163.857 117.204 163.787 117.336 163.683C117.513 163.536 118.302 162.759 118.302 162.759Z" fill="#E8945B"/>
<path d="M116.768 161.832C116.768 161.832 116.893 162.545 117.758 162.778C118.622 163.01 123.97 160.752 125.245 160.128C125.928 159.785 126.917 157.885 127.676 156.222C127.857 155.817 128.027 155.424 128.18 155.071C128.56 154.188 128.806 153.552 128.806 153.552C128.806 152.677 127.842 153.019 126.968 153.417C126.698 153.54 125.308 152.951 124.942 153.664C124.771 153.996 124.537 153.959 124.372 154.33C123.697 155.816 123.081 157.504 122.948 157.902C122.707 158.622 116.768 161.832 116.768 161.832Z" fill="#E8945B"/>
<path d="M118.972 163.426C118.972 163.426 118.072 162.298 117.573 162.423C116.398 162.716 116.556 163.564 116.577 163.723C116.599 163.883 116.681 164.398 117.061 164.534C117.221 164.583 117.391 164.592 117.556 164.561C117.72 164.53 117.875 164.459 118.006 164.355C118.183 164.204 118.972 163.426 118.972 163.426Z" fill="#FFB27D"/>
<path d="M129.309 152.124L126.257 153.251C125.868 152.872 125.476 152.27 125.163 151.719C124.774 151.036 124.504 150.432 124.504 150.432L126.635 148.938L127.31 148.47C127.348 149.828 129.309 152.124 129.309 152.124Z" fill="#FFB27D"/>
<path d="M127.467 149.2C127.467 149.2 126.862 151.083 125.163 151.712C124.774 151.029 124.504 150.425 124.504 150.425L126.635 148.932L127.467 149.2Z" fill="#E8945B"/>
<path d="M123.538 150.38C123.538 150.38 127.311 150.972 127.644 148.615C127.976 146.258 128.686 144.75 126.293 144.273C123.9 143.796 123.302 144.628 122.999 145.387C122.697 146.146 122.564 150.165 123.538 150.38Z" fill="#FFB27D"/>
<path d="M128.491 143.843C128.373 143.873 128.266 143.934 128.182 144.021C128.172 143.513 127.674 143 127.674 143C127.913 143.301 127.836 143.858 127.836 143.858C127.126 142.642 123.666 143.598 123.341 143.679C123.017 143.76 122.788 143.274 122.788 143.274C122.276 143.717 122.081 144.803 122.505 145.513C122.93 146.224 124.307 147.269 124.703 147.068C125.098 146.867 125.1 147.28 125.08 147.857C125.059 148.433 126.057 149.402 126.761 149.542C127.328 149.655 127.373 149.272 127.528 149.019C127.565 148.958 127.611 148.902 127.663 148.853C128.436 148.156 128.861 146.763 128.688 145.389C128.627 144.958 128.484 144.542 128.267 144.164C128.33 144.049 128.405 143.942 128.491 143.843Z" fill="#2C3A64"/>
<path d="M127.186 164.697C127.225 164.869 127.642 166.274 128.725 166.636C129.429 166.874 131.14 167.447 132.659 167.567C132.993 167.306 133.257 166.967 133.429 166.58C134.304 164.44 132.878 162.854 132.878 162.854C130.936 163.32 129.033 163.936 127.186 164.697Z" fill="#2C3A64"/>
<path d="M135.754 159.737C135.754 159.737 138.812 163.259 136.004 167.218C133.196 171.176 128.626 174.376 128.375 175.784C127.887 178.516 124.977 184.158 123.591 186.951L122.404 186.495C122.404 186.495 124.631 173.26 125.424 171.681C126.217 170.103 130.318 162.683 130.318 162.683L135.754 159.737Z" fill="#FFB27D"/>
<path d="M124.336 154.159C124.63 154.253 125.342 154.519 125.533 154.843C125.723 155.167 127.828 154.263 128.07 153.417C127.472 152.762 126.45 152.202 125.846 152.391C125.489 152.496 124.925 153.246 124.336 154.159Z" fill="#5885D6"/>
<path d="M136.371 160.82C136.371 160.82 132.402 163.648 129.753 163.49C129.753 163.49 128.011 166.461 127.625 167.439C127.625 167.439 132.138 169.696 134.486 169.281C134.486 169.281 137.543 166.31 137.366 164.232C137.189 162.153 136.371 160.82 136.371 160.82Z" fill="#35488B"/>
<path d="M125.49 155.5L126.435 156.851L126.511 157.022L128.488 161.536L129.494 163.832C130.17 163.994 131.424 163.879 131.985 163.679C135.045 162.634 136.375 160.809 136.375 160.809C134.598 156.163 132.136 152.99 131.634 152.428C130.759 151.483 128.468 150.699 128.468 150.699C127.841 151.345 125.598 152.477 125.598 152.477C125.107 152.875 125.49 155.5 125.49 155.5Z" fill="#739AF0"/>
<path d="M126.511 157.028L128.488 161.541C129.989 158.511 129.039 154.113 129.039 154.113C129.039 154.113 126.625 156.204 126.54 156.365C126.515 156.585 126.506 156.806 126.511 157.028Z" fill="#5885D6"/>
<path d="M117.436 162.501C117.436 162.501 117.561 163.213 118.425 163.446C119.29 163.68 124.638 161.42 125.913 160.797C126.596 160.455 127.585 158.555 128.344 156.892C128.525 156.487 128.695 156.093 128.848 155.741C129.227 154.858 129.474 154.221 129.474 154.221C129.474 153.347 127.412 152.159 126.538 152.558C126.268 152.681 125.921 153.223 125.55 153.936C125.379 154.268 125.208 154.63 125.036 155C124.361 156.486 123.744 158.174 123.612 158.574C123.375 159.291 117.436 162.501 117.436 162.501Z" fill="#FFB27D"/>
<path d="M125.039 155.003C125.837 155.365 127.273 156.068 128.347 156.894C128.527 156.489 128.698 156.095 128.85 155.743C129.23 154.86 129.477 154.223 129.477 154.223C129.477 153.349 127.415 152.16 126.541 152.56C126.271 152.683 125.924 153.225 125.552 153.938C125.382 154.271 125.211 154.633 125.039 155.003Z" fill="#739AF0"/>
<path d="M124.061 188.032H123.35C123.112 187.999 122.936 187.939 122.692 187.91C122.321 187.867 122.152 188.002 122.116 188.032H119.096C119.02 187.936 119.096 187.714 119.164 187.551C119.19 187.494 119.23 187.443 119.279 187.404C119.328 187.364 119.386 187.336 119.447 187.321C119.767 187.24 120.392 187.167 120.976 186.704C121.301 186.444 122.547 185.748 122.547 185.748C122.574 185.748 122.705 185.785 123.27 186.207C123.564 186.426 124.062 185.899 124.062 185.899C124.129 185.953 124.185 186.02 124.227 186.095C124.295 186.218 124.318 186.362 124.291 186.5C124.246 186.741 124.391 187.188 124.508 187.49C124.578 187.673 124.643 187.804 124.643 187.804C124.643 187.804 124.679 187.964 124.061 188.032Z" fill="#739CF3"/>
<path d="M124.226 186.102C124.056 186.207 123.698 186.416 123.46 186.443C123.139 186.48 122.539 185.756 122.539 185.756C122.566 185.756 122.697 185.792 123.263 186.215C123.556 186.434 124.054 185.907 124.054 185.907C124.124 185.96 124.182 186.026 124.226 186.102Z" fill="#415DA5"/>
<path d="M97.1793 19.0796C101.389 19.1849 102.864 18.4347 105.551 17.1273" stroke="#3363AE" stroke-width="0.1"/>
<path d="M109.115 16.0209C107.926 16.283 106.738 16.5454 105.55 16.8076C105.476 16.7156 105.372 16.6491 105.238 16.6353C105.041 16.6149 104.967 16.9189 105.166 16.9396C105.179 16.9409 105.186 16.9456 105.197 16.9478C104.976 17.0326 104.755 17.1174 104.533 17.2022C104.347 17.2738 104.437 17.5733 104.625 17.5009C104.861 17.4106 105.096 17.3204 105.331 17.2301C105.299 17.3117 105.238 17.3896 105.166 17.4323C104.971 17.5492 104.723 17.5351 104.504 17.5306C104.303 17.5264 104.315 17.8389 104.516 17.8429C104.911 17.8511 105.381 17.8166 105.599 17.4299C105.656 17.3289 105.674 17.2131 105.664 17.101C106.845 16.8404 108.026 16.5799 109.207 16.3191C109.403 16.2764 109.311 15.9777 109.115 16.0209Z" fill="#C99556"/>
<path d="M109.831 16.3391C110.135 16.245 110.447 16.1652 110.777 16.1109C110.165 15.9574 107.036 15.4323 107.031 16.6657C107.03 16.8793 107.239 17.0465 107.45 17.0773C107.661 17.108 107.873 17.037 108.075 16.9673C108.684 16.7568 109.243 16.5212 109.831 16.3391Z" fill="#EBEBEB"/>
<path d="M109.023 11.1088C110.372 11.3824 113.399 11.5263 114.489 10.7823C115.394 10.1641 114.027 9.00029 114.205 8.28357C114.412 7.45156 114.97 6.62776 114.759 5.79628C114.54 4.93776 113.522 4.22448 112.363 3.70974C111.204 3.19474 109.88 2.83187 108.677 2.35504C107.125 1.73957 105.781 0.933267 104.752 0C104.15 0.800738 104.433 1.7629 105.136 2.53315C105.839 3.30341 106.916 3.92072 107.975 4.52479C106.689 4.38298 105.403 4.24092 104.117 4.09911C105.455 5.26245 107.556 6.09685 109.855 6.37887C108.308 6.31579 106.76 6.25244 105.213 6.18936C106.442 6.79607 107.826 7.28854 109.3 7.64425C108.106 7.40013 106.807 7.34632 105.569 7.48972C106.579 8.08477 107.982 8.43041 109.394 8.43253C109.094 8.60111 108.623 8.58388 108.225 8.52265C107.828 8.46142 107.422 8.366 107.02 8.41451C106.617 8.46301 106.26 8.74 106.464 8.95469C106.608 9.10604 106.935 9.14421 107.222 9.16674C107.993 9.22717 108.765 9.28761 109.536 9.34804C108.794 9.16303 107.884 9.25368 107.279 9.57254C108.209 9.94442 109.276 10.1909 110.38 10.289C109.919 10.2092 109.42 10.1297 108.969 10.228C108.517 10.3264 108.198 10.6855 108.489 10.9161C108.616 11.0174 108.823 11.0683 109.023 11.1088Z" fill="#1882C4"/>
<path d="M117.768 12.1069C117.718 12.2686 117.66 12.4295 117.591 12.5893C117.567 12.6437 117.543 12.6977 117.516 12.7518C117.516 12.755 117.512 12.7577 117.512 12.7608C117.178 13.4357 116.653 14.0236 116.028 14.5235C116.025 14.5232 116.022 14.5229 116.021 14.5261C115.017 15.3263 113.771 15.8965 112.711 16.2113C112.618 16.2402 112.524 16.2691 112.424 16.2943C112.328 16.3229 112.231 16.3484 112.131 16.3704C110.931 16.65 109.833 16.575 108.707 16.3717C108.309 16.2999 107.906 16.2116 107.494 16.1196C107.15 16.0401 106.429 16.1011 105.83 16.0261C105.42 15.9781 105.066 15.8726 104.924 15.6144C103.857 13.7031 108.075 11.3059 109.004 10.7058C110.735 9.59101 112.627 8.59493 114.589 8.3304C114.977 8.2758 115.368 8.25301 115.76 8.26149C116.703 8.2811 117.353 8.80989 117.687 9.56318C118.008 10.2839 118.043 11.2161 117.768 12.1069Z" fill="#1EA4F7"/>
<path d="M104.333 16.3917C105.425 16.0195 108.673 14.1607 106.361 13.3048C105.205 12.8773 103.938 13.0509 102.768 12.7805C101.375 12.4585 99.9819 12.0389 98.553 12.0657C98.3348 12.0699 98.0685 12.1189 97.9982 12.3254C97.9047 12.6016 98.2455 12.8137 98.522 12.907C99.4295 13.2126 100.337 13.5184 101.245 13.8241C100.299 13.4896 99.2095 13.5898 98.3412 14.0912C98.1395 14.2076 97.924 14.4138 97.9974 14.6346C98.0592 14.8204 98.2853 14.8835 98.4777 14.9193C99.6159 15.13 100.754 15.3407 101.892 15.5512C101.264 15.5764 100.642 15.7412 100.084 16.0312C99.7882 16.1847 99.4711 16.5131 99.6389 16.8007C99.7622 17.0122 100.059 17.0225 100.303 17.0071C101.663 16.9213 103.043 16.8317 104.333 16.3917Z" fill="url(#paint0_linear_110_197)"/>
<path d="M110.137 13.0804C111.557 13.0258 114.45 12.4684 114.993 11.5311C115.443 10.7524 113.448 9.98689 113.164 9.28264C112.834 8.4652 112.836 7.57514 112.119 6.85365C111.378 6.10884 109.989 5.68077 108.593 5.46846C107.198 5.25615 105.745 5.22222 104.332 5.05524C102.509 4.83948 100.761 4.39975 99.2233 3.77051C99.1673 4.64917 100.032 5.47536 101.165 6.028C102.299 6.58064 103.682 6.90667 105.041 7.2242C103.762 7.38615 102.482 7.5481 101.203 7.71005C103.171 8.48163 105.638 8.77532 107.943 8.51159C106.471 8.80606 104.999 9.10054 103.527 9.39528C105.045 9.67651 106.634 9.81673 108.222 9.80957C106.963 9.85622 105.727 10.1027 104.67 10.5178C105.979 10.8383 107.494 10.8383 108.803 10.5178C108.63 10.7426 108.183 10.834 107.777 10.8679C107.371 10.9019 106.935 10.9064 106.593 11.0429C106.251 11.1796 106.094 11.5173 106.417 11.6697C106.645 11.7771 106.972 11.7379 107.251 11.6931C108.003 11.573 108.755 11.4529 109.507 11.3329C108.704 11.331 107.918 11.6223 107.558 12.0557C108.652 12.1874 109.795 12.1723 110.878 12.0114C110.401 12.0427 109.89 12.083 109.533 12.277C109.177 12.471 109.107 12.8763 109.52 13.0234C109.703 13.0889 109.926 13.0886 110.137 13.0804Z" fill="url(#paint1_linear_110_197)"/>
<path d="M118.519 11.7224C118.315 11.8539 118.061 11.9901 117.767 12.107C116.545 12.6199 114.712 12.9215 113.797 12.1388C113.5 11.8881 113.302 11.5242 113.246 11.0198C113.126 9.92878 113.725 8.99948 114.588 8.33021C115.519 7.61085 116.76 7.19709 117.743 7.22068C118.867 7.24798 120.04 8.036 120.144 9.15693C120.148 9.21073 120.153 9.26772 120.154 9.32099C120.158 10.3134 119.362 11.1677 118.519 11.7224Z" fill="#1EA4F7"/>
<path d="M118.521 11.7228C118.317 11.8542 118.062 11.9905 117.769 12.1074C117.719 12.2691 117.66 12.4299 117.592 12.5898C117.568 12.6441 117.544 12.6982 117.517 12.7522C117.516 12.7554 117.513 12.7581 117.513 12.7613C116.796 14.2125 115.041 15.4102 113.568 16.0058C112.032 16.6266 110.295 16.6589 108.708 16.3721C108.31 16.3003 107.907 16.212 107.495 16.1201C106.994 16.0082 106.49 16.1445 106 16.0702C106.089 16.0838 106.47 15.7546 106.567 15.6997C106.775 15.5825 106.964 15.4988 107.193 15.4505C107.658 15.3522 108.091 15.2109 108.525 15.0034C109.439 14.5671 110.258 13.9625 111.094 13.3979C111.801 12.9182 112.658 12.3867 113.504 12.2025C113.606 12.1808 113.702 12.1614 113.798 12.1392C114.527 11.9974 115.088 11.9088 115.71 11.3082C116.272 10.7709 116.738 10.1147 117.404 9.71284C117.497 9.65877 117.589 9.60787 117.688 9.56361C118.413 9.2299 119.26 9.19651 120.06 9.30624C120.091 9.30916 120.122 9.31525 120.156 9.32161C120.16 10.3137 119.364 11.168 118.521 11.7228Z" fill="#F8FCFF"/>
<path d="M120.11 9.31445C119.868 10.037 119.239 10.6541 118.58 11.0877C118.377 11.2192 118.122 11.3554 117.829 11.4723C117.779 11.634 117.72 11.7949 117.651 11.9547C117.628 12.009 117.603 12.0631 117.576 12.1172C117.576 12.1204 117.573 12.123 117.572 12.1262C116.856 13.5774 115.101 14.7752 113.627 15.3707C112.471 15.838 111.166 15.9944 109.926 15.8844C108.716 15.7768 107.528 15.6 106.371 16.0906C107.155 15.9525 107.944 16.2348 108.708 16.3729C110.295 16.6597 112.032 16.6274 113.567 16.0066C115.041 15.411 116.796 14.2132 117.513 12.7621C117.513 12.7589 117.516 12.7562 117.516 12.753C117.544 12.699 117.568 12.6449 117.591 12.5906C117.66 12.4307 117.719 12.2698 117.769 12.1082C118.062 11.9913 118.317 11.8553 118.521 11.7236C119.364 11.1688 120.16 10.3145 120.156 9.32214C120.139 9.31896 120.125 9.3171 120.11 9.31445Z" fill="#EBEBEB"/>
<path d="M121.419 9.07717C121.285 9.27145 121.117 9.44268 120.925 9.58077C120.682 9.75598 120.386 9.87975 120.087 9.85431C119.65 9.8172 119.474 9.40902 119.695 9.02097C120.047 8.40392 120.892 8.92449 121.419 9.07717Z" fill="#C99556"/>
<path d="M118.534 8.86871L118.482 8.86394C118.081 8.82631 118.022 9.44866 118.423 9.4863L118.475 9.49107C118.876 9.52844 118.935 8.90635 118.534 8.86871Z" fill="#5D5D5D"/>
<path d="M111.398 10.5063C111.199 10.7062 110.979 10.9418 110.69 10.9996C110.569 11.0237 110.417 11.0165 110.311 10.9463C110.199 10.8715 110.126 10.6577 110.224 10.5413C110.299 10.5158 110.375 10.4904 110.449 10.4644C110.635 10.3984 110.573 10.0917 110.383 10.1588C110.369 10.1638 110.352 10.1702 110.334 10.1766C110.308 10.1665 110.278 10.1628 110.242 10.1758C110.179 10.1983 110.126 10.2312 110.078 10.2691C109.624 10.4289 108.902 10.6415 108.805 10.308C108.726 10.0321 109.011 9.80072 109.175 9.62472C109.268 9.52453 109.344 9.42142 109.411 9.30983C109.423 9.30612 109.437 9.30268 109.449 9.29896C109.623 9.24701 109.585 8.99229 109.432 8.98911C109.362 8.95386 109.265 8.9642 109.214 9.04319C108.743 9.17836 108.175 9.2995 107.795 8.92789C107.151 8.29731 108.084 7.63732 108.639 7.48014C108.831 7.42554 108.767 7.11966 108.573 7.17453C107.872 7.37332 106.991 7.99966 107.361 8.85022C107.641 9.49564 108.332 9.53142 108.948 9.4201C108.639 9.78057 108.241 10.1744 108.599 10.6171C108.754 10.809 109.002 10.8215 109.229 10.7912C109.444 10.7626 109.659 10.7122 109.872 10.6513C109.851 10.858 109.938 11.0778 110.141 11.2082C110.676 11.5504 111.241 11.1056 111.608 10.7366C111.75 10.5951 111.54 10.3632 111.398 10.5063Z" fill="#0F87D1"/>
<path d="M103.367 14.8859C103.18 14.9686 102.989 15.0428 102.792 15.0998C102.712 15.1231 102.344 15.266 102.28 15.1962C102.179 15.0865 102.634 14.8591 102.697 14.8193C102.872 14.7075 103.046 14.5954 103.221 14.4835C103.39 14.3751 103.19 14.1355 103.022 14.2428C103.006 14.2532 102.989 14.263 102.973 14.2731C102.552 14.3862 102.128 14.4713 101.693 14.5074C101.418 14.5302 101.141 14.5347 100.865 14.5214C100.72 14.5145 100.575 14.5031 100.431 14.4867C100.226 14.3375 100.24 14.2566 100.474 14.2447C100.744 14.03 101.455 13.9613 101.79 13.8869C102.241 13.7867 102.695 13.7109 103.153 13.6502C103.353 13.6237 103.298 13.3159 103.099 13.3424C102.324 13.4453 101.558 13.598 100.807 13.8166C100.514 13.902 99.8265 13.9714 99.8734 14.4104C99.919 14.8382 100.538 14.8188 100.836 14.8329C101.301 14.8549 101.762 14.8209 102.218 14.7488C102.174 14.7804 102.129 14.8111 102.087 14.8448C101.927 14.9739 101.82 15.187 101.966 15.3701C102.098 15.5355 102.343 15.5239 102.529 15.487C102.863 15.421 103.188 15.3068 103.499 15.1697C103.683 15.0884 103.552 14.8048 103.367 14.8859Z" fill="#0F87D1"/>
<path d="M110.496 16.3461C109.308 16.6082 108.119 16.8706 106.931 17.1328C106.857 17.0408 106.753 16.9742 106.619 16.9605C106.422 16.94 106.348 17.2441 106.547 17.2647C106.56 17.2661 106.567 17.2706 106.578 17.273C106.357 17.3578 106.136 17.4426 105.915 17.5274C105.728 17.599 105.818 17.8985 106.006 17.8261C106.242 17.7358 106.477 17.6456 106.712 17.5553C106.68 17.6369 106.619 17.7148 106.547 17.7575C106.352 17.8744 106.104 17.8603 105.885 17.8558C105.684 17.8516 105.696 18.1641 105.897 18.1683C106.292 18.1765 106.762 18.1421 106.98 17.7554C107.037 17.6544 107.055 17.5386 107.045 17.4264C108.226 17.1659 109.406 16.9053 110.587 16.6445C110.784 16.6016 110.691 16.3029 110.496 16.3461Z" fill="#C99556"/>
<path d="M111.212 16.6643C111.516 16.5702 111.828 16.4904 112.157 16.4361C111.546 16.2826 108.417 15.7575 108.412 16.9908C108.411 17.2045 108.619 17.3717 108.831 17.4025C109.042 17.4332 109.254 17.3625 109.456 17.2925C110.065 17.082 110.624 16.8464 111.212 16.6643Z" fill="#EBEBEB"/>
<path d="M85.4255 10.3566C85.4851 10.3562 85.5432 10.3755 85.5907 10.4116L97.3576 19.095C97.4135 19.135 97.4524 19.1945 97.4667 19.2618C97.4809 19.329 97.4695 19.3992 97.4347 19.4584L89.9682 32.3431C89.9379 32.3917 89.8943 32.4306 89.8426 32.455C89.7908 32.4794 89.7331 32.4884 89.6763 32.4808C89.621 32.4709 89.5699 32.4446 89.5296 32.4053C89.4894 32.3661 89.4618 32.3156 89.4506 32.2605L85.1612 10.7365C85.1559 10.7037 85.1559 10.6702 85.1612 10.6374C85.1611 10.5657 85.1884 10.4967 85.2375 10.4445C85.2867 10.3922 85.3539 10.3608 85.4255 10.3566ZM96.8235 19.3924L85.855 11.2926L89.8635 31.4181L96.8235 19.3924Z" fill="#003D51"/>
<path d="M90.1875 30.7737C90.1875 30.7737 66.037 38.9891 42.762 37.3813C20.5277 35.834 10.0823 29.5403 0.000267029 33.5269L6.53623 20.8129L1.43191 10.9787C1.43191 10.9787 29.4423 19.3207 46.4952 17.823C63.5482 16.3253 82.4732 9.35984 86.8287 12.972L90.1875 30.7737Z" fill="#3363AE"/>
<g style="mix-blend-mode:multiply" opacity="0.4">
<path d="M0.408821 32.7178C0.618057 32.4314 0.843803 32.1671 1.06956 31.8808C2.11575 30.6474 3.20601 29.4581 4.26321 28.2357C5.95914 26.2864 7.7652 24.2932 10.0062 22.9662L9.76949 22.6413C9.75581 22.6394 9.74269 22.6346 9.73096 22.6273C9.71925 22.62 9.70918 22.6104 9.70141 22.599C9.69363 22.5876 9.68832 22.5747 9.68581 22.5611C9.68332 22.5475 9.68369 22.5336 9.68689 22.5202C8.10108 20.3177 6.59786 18.0766 6.56483 15.329C6.56523 15.3125 6.57 15.2964 6.57864 15.2823C6.58728 15.2682 6.59949 15.2567 6.61403 15.2489C6.62856 15.241 6.64491 15.2372 6.66142 15.2377C6.67792 15.2382 6.69399 15.2431 6.70799 15.2519C7.96893 15.8025 9.20232 16.4192 10.4467 17.0084C11.7385 17.6404 13.068 18.1921 14.4278 18.6603C15.7438 19.0953 17.1038 19.4146 18.4584 19.7285C21.2569 20.3933 24.087 20.9171 26.938 21.2978C32.5962 22.1013 38.3357 22.1531 44.0075 21.4519C49.8827 20.637 55.6753 19.3761 61.4513 18.0546C64.3421 17.3938 67.2329 16.7221 70.1292 16.0943C72.4529 15.5878 74.7875 15.0371 77.1442 14.6902C78.7961 14.448 80.6242 14.2883 82.1604 15.0206C83.972 15.8851 84.5722 17.7407 85.0457 19.5633C86.0974 23.5774 86.3122 27.7897 86.2901 31.9469C88.7404 31.2476 90.1445 30.7741 90.1445 30.7741L86.7857 12.9723C82.4302 9.36017 63.5052 16.3311 46.4523 17.8233C29.3993 19.3155 1.38893 10.979 1.38893 10.979L6.49324 20.8132L0.408821 32.7178Z" fill="#3363AE"/>
</g>
<g style="mix-blend-mode:screen" opacity="0.4">
<path d="M84.585 31.3961C84.585 31.3961 58.4413 37.7449 39.7695 36.5005C21.0977 35.256 13.2568 29.0284 3.80804 32.0184C3.80804 32.0184 6.92458 28.164 22.1109 31.5173C37.2972 34.8706 59.7022 34.6283 84.6016 28.2796L84.585 31.3961Z" fill="#3363AE"/>
</g>
<path d="M99.8555 19.9319C98.994 19.518 98.0572 19.2839 97.1023 19.2436C97.4509 19.049 97.7475 18.7733 97.9668 18.4397C98.1375 18.1699 98.1375 17.5862 97.686 17.845C97.2953 18.1221 96.9655 18.4763 96.7169 18.8857C96.66 18.2321 96.6435 17.5756 96.6673 16.92C96.6673 16.8594 96.3975 16.9475 96.381 17.0797C96.3424 17.5837 96.3424 18.0899 96.381 18.5939V18.6875L96.2709 18.5553C96.0541 18.2973 95.8125 18.0612 95.5496 17.8505C95.4615 17.7845 95.2577 17.9497 95.2743 18.0488C95.3238 18.3351 95.7258 18.4838 95.9075 18.6875C96.0892 18.8912 96.1883 18.9573 96.3259 19.095C96.1607 19.0514 95.9885 19.0412 95.8193 19.0648C95.6501 19.0884 95.4873 19.1455 95.3403 19.2326C95.0925 19.3923 94.5694 19.9539 95.1641 20.0145C95.3993 20.0366 95.6365 20.0061 95.8584 19.9251C96.0803 19.8442 96.2814 19.7148 96.4471 19.5465L96.6178 19.6511C96.6618 19.6841 96.7334 19.6511 96.805 19.6511M97.4547 18.3186C97.5428 18.1809 97.664 18.1864 97.8126 18.3186C97.7825 18.4533 97.7223 18.5794 97.6364 18.6875C97.4444 18.9514 97.1912 19.1649 96.8986 19.3097C96.8685 19.2625 96.8427 19.2128 96.8215 19.161C97.0125 18.8552 97.2241 18.5627 97.4547 18.2855V18.3186ZM96.1883 19.541C96.1047 19.6129 96.0075 19.6675 95.9026 19.7015C95.7977 19.7355 95.687 19.7483 95.5771 19.7392C95.5 19.7392 95.1421 19.7392 95.2743 19.574C95.4083 19.4598 95.5743 19.3896 95.7496 19.3728C95.9249 19.3561 96.1011 19.3936 96.2544 19.4804L96.1883 19.541Z" fill="#3363AE"/>
<path d="M15.9238 28.4836C16.1102 27.1076 16.3021 25.8082 16.4994 24.5852C16.6967 23.3623 17.0228 21.7819 17.4778 19.8441C18.9973 19.8579 20.464 19.9788 21.8777 20.2069L21.6196 21.8071C20.6395 21.649 19.7239 21.5325 18.8728 21.4574C18.6814 22.4233 18.5393 23.1657 18.4467 23.6847C19.1213 23.6956 19.911 23.7652 20.8158 23.8933L20.8321 25.3643C20.2496 25.2792 19.3674 25.2037 18.1856 25.1376C18.0177 26.1784 17.901 26.9293 17.8355 27.3904C18.5999 27.4514 19.5229 27.4669 20.6046 27.4367L20.5949 28.9035C19.803 29.1228 18.9041 29.1513 17.898 28.989L15.9238 28.4836Z" fill="white"/>
<path d="M25.482 22.2968C25.1003 22.2352 24.6902 22.654 24.2514 23.5533C23.8141 24.4438 23.5366 25.2533 23.4191 25.9819C23.1728 27.5084 23.4487 28.336 24.2466 28.4648C24.4721 28.5011 24.6827 28.4372 24.8782 28.273C25.0839 28.1015 25.2382 27.9173 25.3412 27.7203C25.4528 27.5247 25.59 27.2532 25.7529 26.9057L27.3842 27.3024C26.9866 28.3328 26.5168 29.0935 25.9748 29.5845C25.4415 30.0769 24.7759 30.2588 23.9779 30.13C23.0412 29.9789 22.3737 29.5108 21.9753 28.7257C21.587 27.9333 21.481 26.9907 21.6573 25.8979C21.863 24.6229 22.3146 23.4232 23.0121 22.2988C23.3515 21.7395 23.7689 21.304 24.2641 20.9924C24.7694 20.6734 25.3039 20.5594 25.8677 20.6504C26.5616 20.7623 27.0276 21.0733 27.2656 21.5834C27.3854 21.8341 27.4741 22.0842 27.5317 22.3338C27.598 22.5848 27.6234 22.8959 27.608 23.2672C27.5923 23.8609 27.5393 24.493 27.4489 25.1637L25.7958 24.7368C25.9763 23.6179 25.9856 22.8986 25.8236 22.5788C25.752 22.416 25.6381 22.322 25.482 22.2968Z" fill="white"/>
<path d="M30.3629 31.2135C29.539 31.0806 28.9002 30.5993 28.4467 29.7698C28.0033 28.9329 27.9033 27.7599 28.1468 26.2507C28.3917 24.7329 28.899 23.5466 29.6687 22.6919C30.4471 21.8386 31.257 21.4798 32.0983 21.6155C32.9396 21.7512 33.5776 22.2368 34.0124 23.0723C34.4558 23.9092 34.5565 25.0778 34.3144 26.5783C34.0723 28.0788 33.5614 29.26 32.7816 30.122C32.0018 30.984 31.1956 31.3479 30.3629 31.2135ZM31.8615 23.1658C31.4799 23.1042 31.0957 23.3893 30.709 24.0211C30.3238 24.6441 30.0485 25.4674 29.8834 26.4909C29.7197 27.5056 29.7151 28.2791 29.8695 28.8113C30.034 29.3362 30.294 29.6273 30.6496 29.6847C31.0053 29.742 31.3721 29.4541 31.7501 28.821C32.1368 28.1892 32.412 27.366 32.5757 26.3512C32.7408 25.3278 32.7454 24.5543 32.5896 24.0308C32.4425 23.5087 32.1998 23.2204 31.8615 23.1658Z" fill="white"/>
<path d="M42.5602 22.194L42.7607 23.8024C41.7843 23.9241 40.8727 24.0687 40.0259 24.2362C40.04 24.4912 40.0785 24.9424 40.1415 25.5897C40.2121 26.2272 40.2523 26.6206 40.262 26.7699C41.2222 26.5174 41.9986 26.3543 42.5915 26.2804L43.0323 27.6862C42.0591 27.8341 41.1906 28.0043 40.4266 28.1969C40.5961 29.5569 40.7629 30.7535 40.9271 31.7866L39.1373 31.8105C38.9438 30.4003 38.7716 29.0893 38.6205 27.8775C38.4695 26.6657 38.341 25.066 38.2349 23.0783C39.6974 22.6659 41.1392 22.3711 42.5602 22.194Z" fill="white"/>
<path d="M44.5184 31.2062C44.371 29.0997 44.1952 27.227 43.9909 25.588C43.7866 23.949 43.6481 22.8729 43.5752 22.3596C44.4777 21.7868 45.4477 21.4357 46.4851 21.3064C47.2523 21.2108 47.9235 21.375 48.4987 21.7991C49.0827 22.2221 49.43 22.8783 49.5409 23.7675C49.6691 24.7962 49.0644 25.8765 47.727 27.0082C48.6442 27.9032 49.5913 28.8962 50.5684 29.9874L49.4287 31.0723C48.7762 30.3125 47.6227 29.084 45.9681 27.3868C46.1092 28.7326 46.227 29.9972 46.3214 31.1807L44.5184 31.2062ZM45.8965 26.4926C46.5036 26.1071 47.0061 25.6638 47.404 25.1626C47.8008 24.6528 47.9764 24.2148 47.9308 23.8486C47.8852 23.4825 47.7409 23.2127 47.4979 23.0394C47.2637 22.8649 46.9722 22.7995 46.6235 22.8429C46.2748 22.8864 45.9004 23.0083 45.5004 23.2087C45.6841 24.682 45.8161 25.7767 45.8965 26.4926Z" fill="white"/>
<path d="M52.4827 20.9042C52.5759 22.2914 52.7301 23.8481 52.9452 25.5743C53.1603 27.3005 53.4131 28.867 53.7036 30.2739L51.9186 30.337C51.5836 28.5727 51.327 26.9756 51.1488 25.5458C50.9696 24.1074 50.8192 22.5812 50.6977 20.9673L52.4827 20.9042Z" fill="white"/>
<path d="M55.3309 29.7922C55.1244 28.4191 54.9445 27.1179 54.7913 25.8887C54.6381 24.6594 54.5085 23.051 54.4024 21.0633C55.8649 20.6509 57.3067 20.3561 58.7278 20.179L58.9282 21.7874C57.9431 21.9102 57.0315 22.0548 56.1935 22.2212C56.2803 23.202 56.3519 23.9545 56.4084 24.4786C57.059 24.3002 57.8366 24.1457 58.7411 24.0153L59.1688 25.4228C58.5858 25.5043 57.7178 25.6789 56.5648 25.9465C56.6952 26.9927 56.7935 27.7463 56.8598 28.2072C57.6107 28.0517 58.5011 27.8079 59.531 27.4759L59.9326 28.8867C59.2339 29.319 58.3789 29.5982 57.3676 29.7243L55.3309 29.7922Z" fill="white"/>
<path d="M65.5837 19.112L66.3546 25.1912C66.4796 26.1938 66.5789 27.2748 66.6526 28.4343L65.17 28.473C63.727 26.0587 62.5688 24.2598 61.6953 23.076C61.8648 24.3652 62.1256 26.4221 62.4776 29.2468L60.9264 29.2675C60.8329 28.7302 60.7546 28.2088 60.6916 27.7031C60.4287 25.5933 60.24 23.1202 60.1255 20.2836L61.8859 20.2369C63.0456 22.5093 64.047 24.2216 64.89 25.3737C64.5096 22.7474 64.1899 20.6801 63.9311 19.1719L65.5837 19.112Z" fill="white"/>
<path d="M69.2756 18.6917C70.2956 18.5646 71.1302 18.8678 71.7794 19.6014C72.4373 20.334 72.8374 21.2712 72.9798 22.4133C73.0895 23.2938 73.0538 24.1438 72.8726 24.9632C72.6903 25.7739 72.3359 26.482 71.8094 27.0877C71.2817 27.6847 70.6213 28.0326 69.8279 28.1315C69.671 28.151 69.0706 28.1639 68.0266 28.1701C67.9151 26.2805 67.7827 24.7211 67.6295 23.4918C67.4763 22.2626 67.2676 20.9074 67.0033 19.4264C67.812 19.0246 68.5694 18.7797 69.2756 18.6917ZM69.956 26.4953C70.357 26.4454 70.7097 26.0428 71.014 25.2878C71.3259 24.5229 71.4308 23.7307 71.3287 22.9112C71.2255 22.083 70.9969 21.421 70.6429 20.925C70.2976 20.428 69.9289 20.2039 69.5366 20.2528C69.3273 20.2789 69.1355 20.3382 68.9611 20.4308C69.1568 21.7167 69.3095 22.7999 69.4193 23.6804C69.5279 24.5522 69.6153 25.4665 69.6814 26.4233C69.7512 26.4855 69.8427 26.5095 69.956 26.4953Z" fill="white"/>
<path d="M74.9716 27.2115C74.6344 25.4297 74.3729 23.7935 74.1871 22.3027C74.0003 20.8032 73.8787 19.4372 73.8225 18.2047L75.5813 18.1449C75.6374 19.6607 75.7508 21.1029 75.9214 22.4717C76.0919 23.8404 76.2392 24.8446 76.3632 25.4843C76.6716 25.4016 77.4323 25.2183 78.6453 24.9343L79.0959 26.4186C78.4518 26.5786 77.544 26.8245 76.3724 27.1565L74.9716 27.2115Z" fill="white"/>
<path d="M79.9676 24.132L79.8421 23.1251C78.3991 20.8525 77.5502 19.1921 77.2956 18.1437L78.9498 18.0969C79.2633 19.0494 79.8099 20.1676 80.5897 21.4516C81.1166 19.7834 81.5013 18.2879 81.7437 16.9651L83.2786 16.9199C82.8627 18.8398 82.3198 20.8066 81.65 22.8201C81.7304 23.6069 81.8075 24.2967 81.8814 24.8895C81.9553 25.4823 82.0472 26.0774 82.157 26.6746L80.408 26.7066C80.2285 25.9056 80.0817 25.0474 79.9676 24.132Z" fill="white"/>
<defs>
<linearGradient id="paint0_linear_110_197" x1="97.7974" y1="14.3718" x2="107.068" y2="15.2434" gradientUnits="userSpaceOnUse">
<stop stop-color="#1B75DE"/>
<stop offset="0.0777" stop-color="#1B7BE1"/>
<stop offset="0.4072" stop-color="#1D92ED"/>
<stop offset="0.721" stop-color="#1E9FF5"/>
<stop offset="1" stop-color="#1EA4F7"/>
</linearGradient>
<linearGradient id="paint1_linear_110_197" x1="98.8361" y1="7.89095" x2="115.236" y2="9.43274" gradientUnits="userSpaceOnUse">
<stop stop-color="#1B75DE"/>
<stop offset="0.0777" stop-color="#1B7BE1"/>
<stop offset="0.4072" stop-color="#1D92ED"/>
<stop offset="0.721" stop-color="#1E9FF5"/>
<stop offset="1" stop-color="#1EA4F7"/>
</linearGradient>
</defs>
</svg>
