<svg width="208" height="208" viewBox="0 0 208 208" fill="none" xmlns="http://www.w3.org/2000/svg">
<g clip-path="url(#clip0_136_2431)">
<mask id="mask0_136_2431" style="mask-type:luminance" maskUnits="userSpaceOnUse" x="0" y="0" width="208" height="208">
<path d="M208 0H0V208H208V0Z" fill="white"/>
</mask>
<g mask="url(#mask0_136_2431)">
<path d="M25.9893 81.8761C29.8261 81.0499 33.6062 83.4902 34.433 87.3264C35.2592 91.1633 32.8189 94.9446 28.982 95.7708C25.1451 96.5976 21.3645 94.1567 20.5377 90.3198C19.7115 86.4829 22.1524 82.7023 25.9893 81.8761Z" fill="#FF6D83"/>
<path d="M176.115 59.6628C179.895 58.8487 183.62 61.2525 184.434 65.033C185.249 68.8135 182.844 72.5379 179.064 73.3526C175.283 74.1666 171.559 71.7628 170.744 67.9824C169.93 64.2019 172.335 60.4769 176.115 59.6628Z" fill="#0373E3"/>
<path d="M108.152 16.6757C112.102 15.8252 115.993 18.3373 116.844 22.2864C117.695 26.2361 115.182 30.1286 111.233 30.9791C107.283 31.8303 103.392 29.3175 102.54 25.3678C101.69 21.4181 104.203 17.5262 108.152 16.6757Z" fill="#FFB636"/>
<path d="M72.4453 171.33C76.3951 170.479 80.2857 172.991 81.1368 176.94C81.9873 180.89 79.4759 184.781 75.5261 185.633C71.5764 186.483 67.6845 183.972 66.8334 180.022C65.9829 176.073 68.4956 172.18 72.4453 171.33Z" fill="#0373E3"/>
<path d="M172.387 137.069C176.393 136.206 180.34 138.754 181.203 142.76C182.066 146.766 179.518 150.713 175.511 151.576C171.505 152.439 167.558 149.891 166.695 145.885C165.832 141.879 168.381 137.932 172.387 137.069Z" fill="#BDA3FF"/>
<path d="M119.97 44.3963C152.889 53.2169 172.424 87.053 163.604 119.971C154.783 152.89 120.946 172.424 88.0278 163.604C55.1097 154.783 35.5743 120.947 44.3956 88.0292C53.2155 55.1104 87.0515 35.5757 119.97 44.3963Z" fill="#43D296"/>
<path d="M93.7737 127.447C93.0697 128.083 91.9864 128.037 91.338 127.345L68.9389 103.424C68.1725 102.467 67.8013 101.261 67.8998 100.049C67.9981 98.8348 68.5594 97.7046 69.471 96.8811C70.3827 96.0582 71.5776 95.604 72.8162 95.6087C74.0555 95.6133 75.2476 96.0771 76.1553 96.908L92.2981 114.147C92.7298 114.609 93.4524 114.638 93.9215 114.215L127.777 83.6444C128.75 82.8927 129.978 82.5297 131.213 82.6292C132.448 82.728 133.6 83.2803 134.439 84.1776C135.279 85.0731 135.744 86.2479 135.74 87.4648C135.737 88.6817 135.267 89.8516 134.423 90.742L93.7737 127.447Z" fill="white"/>
<path d="M56.0176 41.8555C54.889 37.6635 52.2074 32.1036 45.8418 28.5669" stroke="#FF6E83" stroke-width="5.28661" stroke-linecap="round"/>
<path d="M48.8535 164.421C47.6235 164.627 45.843 164.525 43.3325 163.974C29.1191 160.854 41.7725 173.16 41.7725 173.16C41.7725 173.16 45.0103 179.515 38.8189 177.964" stroke="#BEA4FF" stroke-width="5" stroke-linecap="round"/>
<path d="M162.562 35.2662C166.46 33.8401 171.035 35.2443 175.47 43.862C183.82 60.0835 164.123 56.7828 165.256 46.6759" stroke="#FFB636" stroke-width="4.52063" stroke-linecap="round"/>
<path d="M147.156 165.17C148.264 168.256 151.278 171.874 158.774 174.373C159.638 174.661 160.441 174.949 161.185 175.236" stroke="#213262" stroke-width="5" stroke-linecap="round"/>
</g>
</g>
<defs>
<clipPath id="clip0_136_2431">
<rect width="208" height="208" fill="white"/>
</clipPath>
</defs>
</svg>
