<svg width="74" height="74" viewBox="0 0 74 74" fill="none" xmlns="http://www.w3.org/2000/svg">
<path d="M15.418 24.6663C9.2513 24.6663 6.16797 27.7497 6.16797 33.9163V58.583C6.16797 64.7497 9.2513 67.833 15.418 67.833H40.0846C33.918 67.833 30.8346 64.7497 30.8346 58.583V24.6663M15.418 24.6663H30.8346M15.418 24.6663V18.4997C15.418 15.108 18.193 12.333 21.5846 12.333H31.1738C30.9271 13.258 30.8346 14.2755 30.8346 15.4163V24.6663M43.168 24.6663V40.083M55.5013 24.6663V40.083M18.5013 40.083V52.4163M52.418 52.4163H46.2513C44.5555 52.4163 43.168 53.8038 43.168 55.4997V67.833H55.5013V55.4997C55.5013 53.8038 54.1138 52.4163 52.418 52.4163Z" stroke="#6B6B6B" stroke-width="1.5" stroke-miterlimit="10" stroke-linecap="round" stroke-linejoin="round"/>
<path d="M30.832 58.5837V15.417C30.832 9.25033 33.9154 6.16699 40.082 6.16699H58.582C64.7487 6.16699 67.832 9.25033 67.832 15.417V58.5837C67.832 64.7503 64.7487 67.8337 58.582 67.8337H40.082C33.9154 67.8337 30.832 64.7503 30.832 58.5837Z" stroke="#6B6B6B" stroke-width="1.5" stroke-miterlimit="10" stroke-linecap="round" stroke-linejoin="round"/>
</svg>
