<svg width="41" height="40" viewBox="0 0 41 40" fill="none" xmlns="http://www.w3.org/2000/svg">
<path d="M30.5008 11.9335C30.4008 11.9168 30.2841 11.9168 30.1841 11.9335C27.8841 11.8502 26.0508 9.96683 26.0508 7.6335C26.0508 5.25017 27.9674 3.3335 30.3508 3.3335C32.7341 3.3335 34.6508 5.26683 34.6508 7.6335C34.6341 9.96683 32.8008 11.8502 30.5008 11.9335Z" stroke="#28ACF5" stroke-width="2" stroke-linecap="round" stroke-linejoin="round"/>
<path d="M28.7844 24.0666C31.0677 24.4499 33.5844 24.0499 35.3511 22.8666C37.7011 21.2999 37.7011 18.7333 35.3511 17.1666C33.5677 15.9833 31.0177 15.5833 28.7344 15.9833" stroke="#28ACF5" stroke-width="2" stroke-linecap="round" stroke-linejoin="round"/>
<path d="M10.4488 11.9335C10.5488 11.9168 10.6655 11.9168 10.7655 11.9335C13.0655 11.8502 14.8988 9.96683 14.8988 7.6335C14.8988 5.25017 12.9822 3.3335 10.5988 3.3335C8.2155 3.3335 6.29883 5.26683 6.29883 7.6335C6.31549 9.96683 8.14883 11.8502 10.4488 11.9335Z" stroke="#28ACF5" stroke-width="2" stroke-linecap="round" stroke-linejoin="round"/>
<path d="M12.1671 24.0666C9.88372 24.4499 7.36706 24.0499 5.60039 22.8666C3.25039 21.2999 3.25039 18.7333 5.60039 17.1666C7.38372 15.9833 9.93372 15.5833 12.2171 15.9833" stroke="#28ACF5" stroke-width="2" stroke-linecap="round" stroke-linejoin="round"/>
<path d="M20.5008 24.3832C20.4008 24.3665 20.2841 24.3665 20.1841 24.3832C17.8841 24.2999 16.0508 22.4165 16.0508 20.0832C16.0508 17.6999 17.9674 15.7832 20.3508 15.7832C22.7341 15.7832 24.6508 17.7165 24.6508 20.0832C24.6341 22.4165 22.8008 24.3165 20.5008 24.3832Z" stroke="#28ACF5" stroke-width="2" stroke-linecap="round" stroke-linejoin="round"/>
<path d="M15.6512 29.6331C13.3012 31.1998 13.3012 33.7664 15.6512 35.3331C18.3178 37.1164 22.6845 37.1164 25.3512 35.3331C27.7012 33.7664 27.7012 31.1998 25.3512 29.6331C22.7012 27.8664 18.3178 27.8664 15.6512 29.6331Z" stroke="#28ACF5" stroke-width="2" stroke-linecap="round" stroke-linejoin="round"/>
</svg>
