<svg width="191" height="87" viewBox="0 0 191 87" fill="none" xmlns="http://www.w3.org/2000/svg">
<path d="M164.219 51.0702C177.259 48.945 186.107 36.6511 183.982 23.6111C181.857 10.5711 169.563 1.72297 156.523 3.84821C143.483 5.97344 134.635 18.2673 136.76 31.3073C138.885 44.3473 151.179 53.1955 164.219 51.0702Z" fill="url(#paint0_linear_136_493)"/>
<rect x="94.9824" y="15.1719" width="28.9219" height="16.1204" fill="white"/>
<path d="M118.323 16.0967L137.022 30.4865H113.999L95.4648 16.0967H118.323Z" fill="#189CD8" stroke="white" stroke-width="4.05" stroke-miterlimit="10"/>
<path d="M112.933 31.1283L112.38 30.6894H111.674H89.7656H83.9967L88.4999 34.2951L106.264 48.519L106.819 48.9632H107.53H129.592H135.401L130.851 45.3522L112.933 31.1283Z" fill="#0779B8" stroke="white" stroke-width="4.05" stroke-miterlimit="10"/>
<path d="M138.498 31.0974L137.957 30.6894H137.279H115.371H109.602L114.105 34.2951L131.87 48.519L132.425 48.9632H133.136H156.146H162.196L157.365 45.3213L138.498 31.0974Z" fill="#0779B8" stroke="white" stroke-width="4.05" stroke-miterlimit="10"/>
<path d="M89.7953 16.0967L108.495 30.4865H85.4712L66.9375 16.0967H89.7953Z" fill="#189CD8" stroke="white" stroke-width="4.05" stroke-miterlimit="10"/>
<path d="M93.0205 15.4823L92.4675 15.0434H91.7615H69.8535H64.0846L68.5878 18.6491L86.3523 32.873L86.9071 33.3172H87.6179H109.68H115.488L110.939 29.7062L93.0205 15.4823Z" fill="#0779B8" stroke="white" stroke-width="4.05" stroke-miterlimit="10"/>
<path d="M117.636 15.4514L117.095 15.0434H116.417H95.457H89.6881L94.1914 18.6491L111.956 32.873L112.511 33.3172H113.221H135.284H141.334L136.503 29.6753L117.636 15.4514Z" fill="#0779B8" stroke="white" stroke-width="4.05" stroke-miterlimit="10"/>
<path d="M6.45312 59.2657L7.02208 58.8437L23.1356 46.9378C23.2562 46.8487 23.3274 46.7076 23.3274 46.5576V46.5576C23.3274 46.4066 23.3996 46.2646 23.5216 46.1756L36.1626 36.9587C36.2536 36.8923 36.3821 36.9192 36.439 37.0165V37.0165C36.4962 37.1143 36.6256 37.1408 36.7166 37.0733L63.8019 16.9973C64.521 16.4643 65.5067 16.474 66.2152 17.021L106.097 47.8157C106.447 48.0861 106.877 48.2327 107.319 48.2327H154.716C156.625 48.2327 157.449 45.8126 155.936 44.6479L122.359 18.7991C120.846 17.6344 121.67 15.2144 123.579 15.2144H125.671C126.103 15.2144 126.524 15.3542 126.87 15.6131L180.388 55.6644C181.927 56.8167 181.112 59.2657 179.189 59.2657H101.68C101.247 59.2657 100.826 59.1254 100.48 58.8658L66.1964 33.1575C65.4954 32.6318 64.5338 32.6237 63.8239 33.1374L27.7226 59.2657" fill="#4E4D4D"/>
<path d="M157.011 9.33248C153.273 10.0122 149.859 11.8928 147.287 14.6888C144.715 17.4849 143.126 21.0437 142.76 24.8251C143.038 24.6956 143.328 24.5939 143.626 24.5216C144.271 24.3689 144.942 24.3641 145.589 24.5073C146.058 22.0051 147.069 19.636 148.551 17.566C150.033 15.496 151.95 13.7752 154.168 12.5243C156.385 11.2735 158.849 10.5228 161.387 10.325C163.926 10.1271 166.476 10.4869 168.861 11.379C165.28 9.30923 161.079 8.58363 157.011 9.33248Z" fill="white"/>
<path d="M24.3159 50.8145C33.054 50.8145 40.1377 43.7447 40.1377 35.0237C40.1377 26.3027 33.054 19.2329 24.3159 19.2329C15.5778 19.2329 8.49414 26.3027 8.49414 35.0237C8.49414 43.7447 15.5778 50.8145 24.3159 50.8145Z" fill="url(#paint1_linear_136_493)"/>
<path d="M34.9743 45.6612C40.8606 39.7864 40.8606 30.2615 34.9743 24.3867C29.088 18.5119 19.5444 18.5119 13.6581 24.3867C7.77179 30.2615 7.77179 39.7864 13.6581 45.6612C19.5444 51.5359 29.088 51.5359 34.9743 45.6612Z" fill="url(#paint2_linear_136_493)"/>
<path d="M33.1866 43.8774C38.0858 38.9877 38.0858 31.0601 33.1866 26.1705C28.2874 21.2809 20.3442 21.2809 15.445 26.1705C10.5458 31.0601 10.5458 38.9877 15.445 43.8774C20.3442 48.767 28.2874 48.767 33.1866 43.8774Z" fill="url(#paint3_linear_136_493)"/>
<path d="M24.3158 46.8901C30.8824 46.8901 36.2057 41.5772 36.2057 35.0234C36.2057 28.4696 30.8824 23.1567 24.3158 23.1567C17.7491 23.1567 12.4258 28.4696 12.4258 35.0234C12.4258 41.5772 17.7491 46.8901 24.3158 46.8901Z" fill="url(#paint4_radial_136_493)"/>
<path d="M23.756 43.1543V41.5854C22.1708 41.5239 20.9453 41.1009 20.0796 40.3163C19.2138 39.5318 18.7745 38.4472 18.7617 37.0625H22.1639C22.2008 37.764 22.3395 38.2686 22.5802 38.5763C22.8208 38.884 23.1908 39.0474 23.6901 39.0664L23.6995 36.0201C22.0223 35.6509 20.8106 35.1448 20.0644 34.5019C19.3182 33.8589 18.9452 33.0051 18.9455 31.9404C18.9455 30.7588 19.3909 29.8066 20.2817 29.0836C21.1726 28.3606 22.3731 27.9837 23.8833 27.953V26.7627H25.3628V27.9354C26.8056 27.9722 27.9308 28.3429 28.7384 29.0476C29.546 29.7524 29.9746 30.7354 30.0243 31.9968H26.7886C26.7586 31.454 26.6208 31.0411 26.3753 30.7579C26.1297 30.4747 25.7803 30.3275 25.3272 30.3163V33.1131C27.1085 33.5376 28.3709 34.0806 29.1141 34.742C29.8573 35.4035 30.2289 36.2973 30.2289 37.4236C30.2289 38.7277 29.8082 39.7261 28.9667 40.4189C28.1253 41.1116 26.8596 41.5065 25.1696 41.6034V43.1556L23.756 43.1543ZM23.9778 32.7888V30.2783H23.9041C23.3675 30.2783 22.965 30.3798 22.6968 30.5826C22.4286 30.7855 22.2946 31.0932 22.2949 31.5058C22.2914 31.6534 22.3236 31.7996 22.3888 31.9322C22.454 32.0647 22.5503 32.1796 22.6694 32.2672C22.9179 32.4608 23.3537 32.6346 23.9766 32.7888H23.9778ZM25.0787 39.0656C25.6705 39.0656 26.1189 38.9609 26.424 38.7515C26.729 38.5421 26.8815 38.2314 26.8815 37.8194C26.8815 37.4624 26.7522 37.1778 26.4936 36.9657C26.2349 36.7536 25.7629 36.5522 25.0775 36.3616L25.0787 39.0656Z" fill="url(#paint5_linear_136_493)"/>
<g style="mix-blend-mode:screen" opacity="0.12">
<path d="M34.0899 22.6061C33.42 30.71 26.6163 37.08 18.3222 37.08C14.7763 37.0855 11.3322 35.897 8.54688 33.7069C9.21684 25.6034 16.0221 19.2334 24.3146 19.2334C27.8605 19.2275 31.3047 20.4158 34.0899 22.6061Z" fill="#FFFF00"/>
</g>
<g style="mix-blend-mode:screen" opacity="0.05">
<path d="M34.0899 22.6061C33.42 30.71 26.6163 37.08 18.3222 37.08C14.7763 37.0855 11.3322 35.897 8.54688 33.7069C9.21684 25.6034 16.0221 19.2334 24.3146 19.2334C27.8605 19.2275 31.3047 20.4158 34.0899 22.6061Z" fill="#FFFF00"/>
</g>
<path style="mix-blend-mode:screen" opacity="0.15" d="M16.7793 25.6316C18.8189 24.1301 21.2876 23.322 23.8219 23.3262C30.3886 23.3262 35.7123 28.6395 35.7123 35.1929C35.7143 36.7797 35.3967 38.3507 34.7784 39.8126C34.8078 39.4523 34.8223 39.0884 34.8217 38.7208C34.8217 31.1234 28.65 24.9617 21.0373 24.9617C19.5915 24.9598 18.1544 25.1859 16.7793 25.6316Z" fill="url(#paint6_linear_136_493)"/>
<path style="mix-blend-mode:screen" opacity="0.15" d="M30.8566 40.7336C34.8052 36.7928 34.8052 30.4035 30.8566 26.4627C26.9081 22.5218 20.5062 22.5218 16.5577 26.4627C12.6091 30.4035 12.6091 36.7928 16.5577 40.7336C20.5062 44.6744 26.9081 44.6744 30.8566 40.7336Z" fill="url(#paint7_linear_136_493)"/>
<path style="mix-blend-mode:screen" opacity="0.15" d="M35.7367 34.7464C35.7367 41.127 30.5758 46.2994 24.2101 46.2994C17.8444 46.2994 12.6836 41.127 12.6836 34.7464C12.6836 28.3658 17.8444 23.1938 24.2101 23.1938C30.5758 23.1938 35.7367 28.3662 35.7367 34.7464Z" fill="url(#paint8_linear_136_493)"/>
<rect x="58" y="45.0415" width="6.63781" height="6.63781" rx="2" fill="#4E4D4D"/>
<rect x="58" y="52.6279" width="6.63781" height="6.63781" rx="2" fill="#4E4D4D"/>
<rect x="66.0586" y="45.0415" width="6.63781" height="6.63781" rx="2" fill="#4E4D4D"/>
<rect x="66.0586" y="52.6279" width="6.63781" height="6.63781" rx="2" fill="#4E4D4D"/>
<path d="M13.7848 84.2C13.1981 84.2 12.6114 84.1533 12.0248 84.06C11.4381 83.98 10.8848 83.8533 10.3648 83.68C9.84477 83.4933 9.3781 83.2667 8.96477 83C8.72477 82.84 8.5581 82.6467 8.46477 82.42C8.37143 82.1933 8.3381 81.9733 8.36477 81.76C8.40477 81.5333 8.49143 81.34 8.62477 81.18C8.77143 81.0067 8.95143 80.9 9.16477 80.86C9.3781 80.82 9.61143 80.88 9.86477 81.04C10.4514 81.3867 11.0714 81.64 11.7248 81.8C12.3781 81.96 13.0648 82.04 13.7848 82.04C14.8381 82.04 15.6048 81.8667 16.0848 81.52C16.5648 81.16 16.8048 80.7 16.8048 80.14C16.8048 79.6733 16.6314 79.3067 16.2848 79.04C15.9514 78.7733 15.3714 78.5533 14.5448 78.38L12.3448 77.92C11.0781 77.6533 10.1314 77.2067 9.50477 76.58C8.89143 75.94 8.58477 75.1 8.58477 74.06C8.58477 73.4067 8.7181 72.8133 8.98477 72.28C9.25143 71.7467 9.62477 71.2867 10.1048 70.9C10.5981 70.5133 11.1781 70.22 11.8448 70.02C12.5248 69.8067 13.2714 69.7 14.0848 69.7C14.8848 69.7 15.6448 69.8 16.3648 70C17.0848 70.2 17.7314 70.4933 18.3048 70.88C18.5181 71.0267 18.6581 71.2067 18.7248 71.42C18.8048 71.6333 18.8248 71.8467 18.7848 72.06C18.7448 72.26 18.6514 72.4333 18.5048 72.58C18.3581 72.7267 18.1714 72.8133 17.9448 72.84C17.7314 72.8667 17.4848 72.8 17.2048 72.64C16.7114 72.36 16.2114 72.16 15.7048 72.04C15.1981 71.92 14.6514 71.86 14.0648 71.86C13.4514 71.86 12.9248 71.9467 12.4848 72.12C12.0448 72.2933 11.7048 72.54 11.4648 72.86C11.2381 73.1667 11.1248 73.5333 11.1248 73.96C11.1248 74.44 11.2848 74.8267 11.6048 75.12C11.9248 75.4 12.4714 75.62 13.2448 75.78L15.4248 76.24C16.7448 76.52 17.7248 76.96 18.3648 77.56C19.0181 78.16 19.3448 78.96 19.3448 79.96C19.3448 80.6 19.2114 81.18 18.9448 81.7C18.6914 82.22 18.3181 82.6667 17.8248 83.04C17.3448 83.4133 16.7648 83.7 16.0848 83.9C15.4048 84.1 14.6381 84.2 13.7848 84.2ZM27.862 84.2C26.502 84.2 25.3086 83.9 24.282 83.3C23.2686 82.7 22.482 81.86 21.922 80.78C21.362 79.6867 21.082 78.4067 21.082 76.94C21.082 75.8333 21.242 74.84 21.562 73.96C21.882 73.0667 22.3353 72.3067 22.922 71.68C23.522 71.04 24.2353 70.5533 25.062 70.22C25.902 69.8733 26.8353 69.7 27.862 69.7C29.2353 69.7 30.4286 70 31.442 70.6C32.4553 71.1867 33.242 72.02 33.802 73.1C34.362 74.18 34.642 75.4533 34.642 76.92C34.642 78.0267 34.482 79.0267 34.162 79.92C33.842 80.8133 33.382 81.58 32.782 82.22C32.1953 82.86 31.482 83.3533 30.642 83.7C29.8153 84.0333 28.8886 84.2 27.862 84.2ZM27.862 82C28.7286 82 29.462 81.8 30.062 81.4C30.6753 81 31.142 80.42 31.462 79.66C31.7953 78.9 31.962 77.9933 31.962 76.94C31.962 75.34 31.602 74.1 30.882 73.22C30.1753 72.34 29.1686 71.9 27.862 71.9C27.0086 71.9 26.2753 72.1 25.662 72.5C25.0486 72.8867 24.5753 73.46 24.242 74.22C23.922 74.9667 23.762 75.8733 23.762 76.94C23.762 78.5267 24.122 79.7667 24.842 80.66C25.562 81.5533 26.5686 82 27.862 82ZM38.5451 84C38.1317 84 37.8117 83.8867 37.5851 83.66C37.3584 83.42 37.2451 83.0933 37.2451 82.68V71.14C37.2451 70.7133 37.3517 70.3933 37.5651 70.18C37.7917 69.9533 38.1117 69.84 38.5251 69.84C38.9384 69.84 39.2517 69.9533 39.4651 70.18C39.6917 70.3933 39.8051 70.7133 39.8051 71.14V81.82H45.6051C45.9651 81.82 46.2384 81.9133 46.4251 82.1C46.6251 82.2867 46.7251 82.5533 46.7251 82.9C46.7251 83.2467 46.6251 83.52 46.4251 83.72C46.2384 83.9067 45.9651 84 45.6051 84H38.5451ZM48.303 84.16C47.983 84.16 47.723 84.0867 47.523 83.94C47.3364 83.7933 47.223 83.6 47.183 83.36C47.143 83.1067 47.1897 82.8267 47.323 82.52L52.603 70.82C52.7764 70.4333 52.983 70.16 53.223 70C53.4764 69.8267 53.763 69.74 54.083 69.74C54.3897 69.74 54.663 69.8267 54.903 70C55.1564 70.16 55.3697 70.4333 55.543 70.82L60.843 82.52C60.9897 82.8267 61.043 83.1067 61.003 83.36C60.963 83.6133 60.8497 83.8133 60.663 83.96C60.4764 84.0933 60.2297 84.16 59.923 84.16C59.5497 84.16 59.2564 84.0733 59.043 83.9C58.843 83.7133 58.663 83.4333 58.503 83.06L57.203 80.04L58.283 80.74H49.843L50.923 80.04L49.643 83.06C49.4697 83.4467 49.2897 83.7267 49.103 83.9C48.9164 84.0733 48.6497 84.16 48.303 84.16ZM54.043 72.68L51.243 79.34L50.723 78.7H57.403L56.903 79.34L54.083 72.68H54.043ZM64.3259 84.16C63.9125 84.16 63.5925 84.0467 63.3659 83.82C63.1525 83.58 63.0459 83.2533 63.0459 82.84V71.2C63.0459 70.7733 63.1592 70.4533 63.3859 70.24C63.6125 70.0133 63.9325 69.9 64.3459 69.9H69.1659C70.7125 69.9 71.9059 70.2733 72.7459 71.02C73.5859 71.7533 74.0059 72.7867 74.0059 74.12C74.0059 74.9867 73.8125 75.7333 73.4259 76.36C73.0525 76.9867 72.5059 77.4667 71.7859 77.8C71.0659 78.1333 70.1925 78.3 69.1659 78.3L69.3459 78H70.0059C70.5525 78 71.0259 78.1333 71.4259 78.4C71.8392 78.6667 72.1992 79.0867 72.5059 79.66L74.0059 82.44C74.1659 82.72 74.2392 82.9933 74.2259 83.26C74.2125 83.5267 74.1125 83.7467 73.9259 83.92C73.7392 84.08 73.4659 84.16 73.1059 84.16C72.7459 84.16 72.4525 84.0867 72.2259 83.94C71.9992 83.78 71.7992 83.54 71.6259 83.22L69.6059 79.5C69.3659 79.0467 69.0792 78.7467 68.7459 78.6C68.4259 78.44 68.0125 78.36 67.5059 78.36H65.6059V82.84C65.6059 83.2533 65.4992 83.58 65.2859 83.82C65.0725 84.0467 64.7525 84.16 64.3259 84.16ZM65.6059 76.46H68.7259C69.6459 76.46 70.3392 76.2733 70.8059 75.9C71.2859 75.5133 71.5259 74.94 71.5259 74.18C71.5259 73.4333 71.2859 72.8733 70.8059 72.5C70.3392 72.1133 69.6459 71.92 68.7259 71.92H65.6059V76.46ZM83.5465 84C83.1065 84 82.7665 83.8867 82.5265 83.66C82.2998 83.42 82.1865 83.08 82.1865 82.64V71.26C82.1865 70.82 82.2998 70.4867 82.5265 70.26C82.7665 70.02 83.1065 69.9 83.5465 69.9H87.4265C89.7865 69.9 91.6065 70.5067 92.8865 71.72C94.1798 72.9333 94.8265 74.6733 94.8265 76.94C94.8265 78.0733 94.6598 79.08 94.3265 79.96C94.0065 80.8267 93.5265 81.56 92.8865 82.16C92.2598 82.76 91.4865 83.22 90.5665 83.54C89.6598 83.8467 88.6132 84 87.4265 84H83.5465ZM84.7465 81.88H87.2665C88.0932 81.88 88.8065 81.78 89.4065 81.58C90.0198 81.3667 90.5265 81.06 90.9265 80.66C91.3398 80.2467 91.6465 79.7333 91.8465 79.12C92.0465 78.4933 92.1465 77.7667 92.1465 76.94C92.1465 75.2867 91.7398 74.0533 90.9265 73.24C90.1132 72.4267 88.8932 72.02 87.2665 72.02H84.7465V81.88ZM98.7009 84.16C98.2875 84.16 97.9675 84.0467 97.7409 83.82C97.5275 83.58 97.4209 83.2533 97.4209 82.84V71.06C97.4209 70.6333 97.5275 70.3067 97.7409 70.08C97.9675 69.8533 98.2875 69.74 98.7009 69.74C99.1142 69.74 99.4275 69.8533 99.6409 70.08C99.8675 70.3067 99.9809 70.6333 99.9809 71.06V82.84C99.9809 83.2533 99.8742 83.58 99.6609 83.82C99.4475 84.0467 99.1275 84.16 98.7009 84.16ZM104.265 84.16C103.892 84.16 103.605 84.0533 103.405 83.84C103.205 83.6267 103.105 83.3333 103.105 82.96V70.94C103.105 70.5533 103.212 70.26 103.425 70.06C103.639 69.8467 103.932 69.74 104.305 69.74C104.639 69.74 104.899 69.8067 105.085 69.94C105.285 70.06 105.465 70.2733 105.625 70.58L110.565 79.72H109.925L114.865 70.58C115.025 70.2733 115.199 70.06 115.385 69.94C115.572 69.8067 115.832 69.74 116.165 69.74C116.539 69.74 116.825 69.8467 117.025 70.06C117.225 70.26 117.325 70.5533 117.325 70.94V82.96C117.325 83.3333 117.225 83.6267 117.025 83.84C116.839 84.0533 116.552 84.16 116.165 84.16C115.792 84.16 115.505 84.0533 115.305 83.84C115.105 83.6267 115.005 83.3333 115.005 82.96V73.7H115.445L111.245 81.36C111.112 81.5867 110.972 81.7533 110.825 81.86C110.679 81.9667 110.479 82.02 110.225 82.02C109.972 82.02 109.765 81.9667 109.605 81.86C109.445 81.74 109.305 81.5733 109.185 81.36L104.945 73.68H105.425V82.96C105.425 83.3333 105.325 83.6267 105.125 83.84C104.939 84.0533 104.652 84.16 104.265 84.16ZM121.789 84C121.349 84 121.009 83.8867 120.769 83.66C120.542 83.42 120.429 83.08 120.429 82.64V71.26C120.429 70.82 120.542 70.4867 120.769 70.26C121.009 70.02 121.349 69.9 121.789 69.9H128.929C129.262 69.9 129.515 69.9867 129.689 70.16C129.875 70.3333 129.969 70.58 129.969 70.9C129.969 71.2333 129.875 71.4933 129.689 71.68C129.515 71.8533 129.262 71.94 128.929 71.94H122.889V75.82H128.489C128.835 75.82 129.095 75.9067 129.269 76.08C129.442 76.2533 129.529 76.5067 129.529 76.84C129.529 77.1733 129.442 77.4267 129.269 77.6C129.095 77.7733 128.835 77.86 128.489 77.86H122.889V81.96H128.929C129.262 81.96 129.515 82.0467 129.689 82.22C129.875 82.3933 129.969 82.6467 129.969 82.98C129.969 83.3133 129.875 83.5667 129.689 83.74C129.515 83.9133 129.262 84 128.929 84H121.789ZM142.472 84.16C142.059 84.16 141.739 84.0467 141.512 83.82C141.299 83.58 141.192 83.2533 141.192 82.84V72.04H137.292C136.945 72.04 136.672 71.9467 136.472 71.76C136.285 71.56 136.192 71.2933 136.192 70.96C136.192 70.6133 136.285 70.3533 136.472 70.18C136.672 69.9933 136.945 69.9 137.292 69.9H147.652C147.999 69.9 148.265 69.9933 148.452 70.18C148.652 70.3533 148.752 70.6133 148.752 70.96C148.752 71.2933 148.652 71.56 148.452 71.76C148.265 71.9467 147.999 72.04 147.652 72.04H143.752V82.84C143.752 83.2533 143.645 83.58 143.432 83.82C143.219 84.0467 142.899 84.16 142.472 84.16ZM151.494 84.16C151.08 84.16 150.76 84.0467 150.534 83.82C150.32 83.58 150.214 83.2533 150.214 82.84V71.06C150.214 70.6333 150.32 70.3067 150.534 70.08C150.76 69.8533 151.08 69.74 151.494 69.74C151.907 69.74 152.22 69.8533 152.434 70.08C152.66 70.3067 152.774 70.6333 152.774 71.06V82.84C152.774 83.2533 152.667 83.58 152.454 83.82C152.24 84.0467 151.92 84.16 151.494 84.16ZM157.058 84.16C156.685 84.16 156.398 84.0533 156.198 83.84C155.998 83.6267 155.898 83.3333 155.898 82.96V70.94C155.898 70.5533 156.005 70.26 156.218 70.06C156.432 69.8467 156.725 69.74 157.098 69.74C157.432 69.74 157.692 69.8067 157.878 69.94C158.078 70.06 158.258 70.2733 158.418 70.58L163.358 79.72H162.718L167.658 70.58C167.818 70.2733 167.992 70.06 168.178 69.94C168.365 69.8067 168.625 69.74 168.958 69.74C169.332 69.74 169.618 69.8467 169.818 70.06C170.018 70.26 170.118 70.5533 170.118 70.94V82.96C170.118 83.3333 170.018 83.6267 169.818 83.84C169.632 84.0533 169.345 84.16 168.958 84.16C168.585 84.16 168.298 84.0533 168.098 83.84C167.898 83.6267 167.798 83.3333 167.798 82.96V73.7H168.238L164.038 81.36C163.905 81.5867 163.765 81.7533 163.618 81.86C163.472 81.9667 163.272 82.02 163.018 82.02C162.765 82.02 162.558 81.9667 162.398 81.86C162.238 81.74 162.098 81.5733 161.978 81.36L157.738 73.68H158.218V82.96C158.218 83.3333 158.118 83.6267 157.918 83.84C157.732 84.0533 157.445 84.16 157.058 84.16ZM174.582 84C174.142 84 173.802 83.8867 173.562 83.66C173.335 83.42 173.222 83.08 173.222 82.64V71.26C173.222 70.82 173.335 70.4867 173.562 70.26C173.802 70.02 174.142 69.9 174.582 69.9H181.722C182.055 69.9 182.308 69.9867 182.482 70.16C182.668 70.3333 182.762 70.58 182.762 70.9C182.762 71.2333 182.668 71.4933 182.482 71.68C182.308 71.8533 182.055 71.94 181.722 71.94H175.682V75.82H181.282C181.628 75.82 181.888 75.9067 182.062 76.08C182.235 76.2533 182.322 76.5067 182.322 76.84C182.322 77.1733 182.235 77.4267 182.062 77.6C181.888 77.7733 181.628 77.86 181.282 77.86H175.682V81.96H181.722C182.055 81.96 182.308 82.0467 182.482 82.22C182.668 82.3933 182.762 82.6467 182.762 82.98C182.762 83.3133 182.668 83.5667 182.482 83.74C182.308 83.9133 182.055 84 181.722 84H174.582Z" fill="#4E4D4D"/>
<defs>
<linearGradient id="paint0_linear_136_493" x1="164.219" y1="51.0702" x2="156.523" y2="3.84821" gradientUnits="userSpaceOnUse">
<stop stop-color="#F4E71F"/>
<stop offset="0.32" stop-color="#F3C31C"/>
<stop offset="0.77" stop-color="#F29619"/>
<stop offset="1" stop-color="#F18518"/>
</linearGradient>
<linearGradient id="paint1_linear_136_493" x1="24.2611" y1="18.976" x2="24.3683" y2="50.5576" gradientUnits="userSpaceOnUse">
<stop stop-color="#CCFF00"/>
<stop offset="0.14" stop-color="#BBFF00"/>
<stop offset="0.37" stop-color="#94FF00"/>
<stop offset="0.66" stop-color="#BAFF00"/>
<stop offset="0.85" stop-color="#B4FD00"/>
<stop offset="1" stop-color="#AAFB00"/>
</linearGradient>
<linearGradient id="paint2_linear_136_493" x1="11.2608" y1="42.547" x2="37.3463" y2="27.4565" gradientUnits="userSpaceOnUse">
<stop offset="0.01" stop-color="#ABFF00"/>
<stop offset="0.25" stop-color="#CCFF00"/>
<stop offset="0.42" stop-color="#BBF900"/>
<stop offset="0.6" stop-color="#A3F100"/>
<stop offset="0.79" stop-color="#BAFF00"/>
<stop offset="1" stop-color="#A5F900"/>
</linearGradient>
<linearGradient id="paint3_linear_136_493" x1="24.316" y1="47.5445" x2="24.316" y2="22.5032" gradientUnits="userSpaceOnUse">
<stop stop-color="#A3E300"/>
<stop offset="0.03" stop-color="#A1DF00"/>
<stop offset="0.33" stop-color="#90B700"/>
<stop offset="0.6" stop-color="#849A00"/>
<stop offset="0.83" stop-color="#7D8800"/>
<stop offset="1" stop-color="#7A8200"/>
</linearGradient>
<radialGradient id="paint4_radial_136_493" cx="0" cy="0" r="1" gradientUnits="userSpaceOnUse" gradientTransform="translate(24.3158 35.0234) scale(11.8896 11.8663)">
<stop stop-color="#A3FF00"/>
<stop offset="0.46" stop-color="#A2FD00"/>
<stop offset="0.63" stop-color="#9FF600"/>
<stop offset="0.75" stop-color="#99EB00"/>
<stop offset="0.85" stop-color="#91DA00"/>
<stop offset="0.93" stop-color="#87C400"/>
<stop offset="1" stop-color="#7AA900"/>
</radialGradient>
<linearGradient id="paint5_linear_136_493" x1="19.7251" y1="29.8981" x2="29.4388" y2="39.8497" gradientUnits="userSpaceOnUse">
<stop stop-color="#33BF00"/>
<stop offset="0.3" stop-color="#32BB00"/>
<stop offset="0.61" stop-color="#2FAF00"/>
<stop offset="0.92" stop-color="#2A9B00"/>
<stop offset="1" stop-color="#289400"/>
</linearGradient>
<linearGradient id="paint6_linear_136_493" x1="32.7288" y1="35.371" x2="22.3687" y2="23.777" gradientUnits="userSpaceOnUse">
<stop stop-color="#FFFF00"/>
<stop offset="0.11" stop-color="#F6F100"/>
<stop offset="0.32" stop-color="#DDCD00"/>
<stop offset="0.61" stop-color="#B69200"/>
<stop offset="0.96" stop-color="#804100"/>
<stop offset="1" stop-color="#7A3800"/>
</linearGradient>
<linearGradient id="paint7_linear_136_493" x1="19.7588" y1="29.1967" x2="29.0321" y2="39.5746" gradientUnits="userSpaceOnUse">
<stop stop-color="#FFFF00"/>
<stop offset="0.11" stop-color="#F6F100"/>
<stop offset="0.32" stop-color="#DDCD00"/>
<stop offset="0.61" stop-color="#B69200"/>
<stop offset="0.96" stop-color="#804100"/>
<stop offset="1" stop-color="#7A3800"/>
</linearGradient>
<linearGradient id="paint8_linear_136_493" x1="19.698" y1="29.717" x2="30.2949" y2="41.5753" gradientUnits="userSpaceOnUse">
<stop stop-color="#FFFF00"/>
<stop offset="0.11" stop-color="#F6F100"/>
<stop offset="0.32" stop-color="#DDCD00"/>
<stop offset="0.61" stop-color="#B69200"/>
<stop offset="0.96" stop-color="#804100"/>
<stop offset="1" stop-color="#7A3800"/>
</linearGradient>
</defs>
</svg>
