<svg width="74" height="74" viewBox="0 0 74 74" fill="none" xmlns="http://www.w3.org/2000/svg">
<path d="M6.16602 67.8333H67.8327M61.6043 67.8642V55.5M9.24935 43.1667H46.2493M27.7493 67.8333V56.2708M46.2802 67.8025L9.28018 67.8642L9.24935 21.7992C9.24935 19.7333 10.2977 17.8217 11.9935 16.6808L24.3268 8.44834C26.3927 7.06084 29.106 7.06084 31.1718 8.44834L43.5052 16.6808C45.2318 17.8217 46.2493 19.7333 46.2493 21.7992L46.2802 67.8025ZM61.666 37C58.2743 37 55.4993 39.775 55.4993 43.1667V49.3333C55.4993 52.725 58.2743 55.5 61.666 55.5C65.0577 55.5 67.8327 52.725 67.8327 49.3333V43.1667C67.8327 39.775 65.0577 37 61.666 37Z" stroke="#6B6B6B" stroke-width="1.5" stroke-miterlimit="10" stroke-linecap="round" stroke-linejoin="round"/>
<path d="M27.75 32.375C28.9766 32.375 30.153 31.8877 31.0204 31.0204C31.8877 30.153 32.375 28.9766 32.375 27.75C32.375 26.5234 31.8877 25.347 31.0204 24.4796C30.153 23.6123 28.9766 23.125 27.75 23.125C26.5234 23.125 25.347 23.6123 24.4796 24.4796C23.6123 25.347 23.125 26.5234 23.125 27.75C23.125 28.9766 23.6123 30.153 24.4796 31.0204C25.347 31.8877 26.5234 32.375 27.75 32.375Z" stroke="#6B6B6B" stroke-width="1.5" stroke-miterlimit="10" stroke-linecap="round" stroke-linejoin="round"/>
</svg>
