<svg width="21" height="20" viewBox="0 0 21 20" fill="none" xmlns="http://www.w3.org/2000/svg">
<path d="M10.1117 11.1917C10.4532 11.1917 10.7912 11.1244 11.1067 10.9938C11.4221 10.8631 11.7088 10.6716 11.9502 10.4302C12.1916 10.1887 12.3831 9.90212 12.5138 9.58668C12.6445 9.27123 12.7117 8.93314 12.7117 8.5917C12.7117 8.25026 12.6445 7.91217 12.5138 7.59672C12.3831 7.28128 12.1916 6.99465 11.9502 6.75322C11.7088 6.51179 11.4221 6.32027 11.1067 6.18961C10.7912 6.05895 10.4532 5.9917 10.1117 5.9917C9.42216 5.9917 8.76084 6.26563 8.27324 6.75322C7.78565 7.24082 7.51172 7.90214 7.51172 8.5917C7.51172 9.28126 7.78565 9.94258 8.27324 10.4302C8.76084 10.9178 9.42216 11.1917 10.1117 11.1917Z" stroke="#AAB5B4" stroke-width="1.5"/>
<path d="M3.12808 7.07484C4.76974 -0.141827 15.4614 -0.133494 17.0947 7.08317C18.0531 11.3165 15.4197 14.8998 13.1114 17.1165C12.3048 17.8945 11.2279 18.3292 10.1072 18.3292C8.98662 18.3292 7.90968 17.8945 7.10308 17.1165C4.80308 14.8998 2.16974 11.3082 3.12808 7.07484Z" stroke="#AAB5B4" stroke-width="1.5"/>
</svg>
