<svg width="136" height="47" viewBox="0 0 136 47" fill="none" xmlns="http://www.w3.org/2000/svg">
<rect width="136" height="47" rx="12" fill="white"/>
<rect x="0.5" y="0.5" width="135" height="46" rx="11.5" stroke="#65A00E" stroke-opacity="0.3"/>
<path d="M19.4225 10.0663L12.5612 12.6513C10.98 13.2425 9.6875 15.1125 9.6875 16.79V27.0063C9.6875 28.6288 10.76 30.76 12.0662 31.7363L17.9787 36.15C19.9175 37.6075 23.1075 37.6075 25.0463 36.15L30.9587 31.7363C32.265 30.76 33.3375 28.6288 33.3375 27.0063V16.79C33.3375 15.0988 32.045 13.2288 30.4638 12.6375L23.6025 10.0663C22.4337 9.64002 20.5637 9.64002 19.4225 10.0663Z" stroke="#87C923" stroke-width="1.5" stroke-linecap="round" stroke-linejoin="round"/>
<path d="M17.4434 23.3213L19.6571 25.5351L25.5696 19.6226" stroke="#87C923" stroke-width="1.5" stroke-linecap="round" stroke-linejoin="round"/>
<path d="M57.4452 7.8C57.4985 7.8 57.5412 7.82133 57.5732 7.864C57.6159 7.896 57.6372 7.93867 57.6372 7.992V9.224C57.6372 9.27733 57.6159 9.32533 57.5732 9.368C57.5412 9.4 57.4985 9.416 57.4452 9.416H54.5012C54.4479 9.416 54.4212 9.44267 54.4212 9.496V18.808C54.4212 18.8613 54.3999 18.9093 54.3572 18.952C54.3252 18.984 54.2825 19 54.2292 19H52.7572C52.7039 19 52.6559 18.984 52.6132 18.952C52.5812 18.9093 52.5652 18.8613 52.5652 18.808V9.496C52.5652 9.44267 52.5385 9.416 52.4852 9.416H49.6532C49.5999 9.416 49.5519 9.4 49.5092 9.368C49.4772 9.32533 49.4612 9.27733 49.4612 9.224V7.992C49.4612 7.93867 49.4772 7.896 49.5092 7.864C49.5519 7.82133 49.5999 7.8 49.6532 7.8H57.4452ZM66.6628 19C66.5668 19 66.4921 18.952 66.4388 18.856L64.7428 15.368C64.7215 15.3253 64.6895 15.304 64.6468 15.304H63.3988C63.3455 15.304 63.3188 15.3307 63.3188 15.384V18.808C63.3188 18.8613 63.2975 18.9093 63.2548 18.952C63.2228 18.984 63.1801 19 63.1268 19H61.6548C61.6015 19 61.5535 18.984 61.5108 18.952C61.4788 18.9093 61.4628 18.8613 61.4628 18.808V9.944C61.4628 9.89067 61.4788 9.848 61.5108 9.816C61.5535 9.77333 61.6015 9.752 61.6548 9.752H65.4148C66.2895 9.752 66.9935 10.008 67.5268 10.52C68.0601 11.032 68.3268 11.704 68.3268 12.536C68.3268 13.1653 68.1668 13.7093 67.8468 14.168C67.5375 14.616 67.1108 14.9307 66.5668 15.112C66.5135 15.1333 66.4975 15.1707 66.5188 15.224L68.3588 18.776C68.3801 18.8187 68.3908 18.8507 68.3908 18.872C68.3908 18.9573 68.3321 19 68.2148 19H66.6628ZM63.3988 11.352C63.3455 11.352 63.3188 11.3787 63.3188 11.432V13.784C63.3188 13.8373 63.3455 13.864 63.3988 13.864H65.1748C65.5695 13.864 65.8841 13.752 66.1188 13.528C66.3641 13.2933 66.4868 12.9893 66.4868 12.616C66.4868 12.2427 66.3641 11.9387 66.1188 11.704C65.8841 11.4693 65.5695 11.352 65.1748 11.352H63.3988ZM75.5844 19.112C74.8804 19.112 74.2618 18.9733 73.7284 18.696C73.1951 18.408 72.7791 18.008 72.4804 17.496C72.1924 16.9733 72.0484 16.3707 72.0484 15.688V9.96C72.0484 9.90667 72.0644 9.864 72.0964 9.832C72.1391 9.78933 72.1871 9.768 72.2404 9.768H73.7124C73.7658 9.768 73.8084 9.78933 73.8404 9.832C73.8831 9.864 73.9044 9.90667 73.9044 9.96V15.704C73.9044 16.2587 74.0538 16.7013 74.3524 17.032C74.6618 17.352 75.0724 17.512 75.5844 17.512C76.0751 17.512 76.4698 17.3467 76.7684 17.016C77.0778 16.6853 77.2324 16.248 77.2324 15.704V9.96C77.2324 9.90667 77.2484 9.864 77.2804 9.832C77.3231 9.78933 77.3711 9.768 77.4244 9.768H78.8964C78.9498 9.768 78.9924 9.78933 79.0244 9.832C79.0671 9.864 79.0884 9.90667 79.0884 9.96V15.688C79.0884 16.3707 78.9391 16.9733 78.6404 17.496C78.3524 18.008 77.9418 18.408 77.4084 18.696C76.8858 18.9733 76.2778 19.112 75.5844 19.112ZM86.3531 19.112C85.2331 19.112 84.3637 18.8773 83.7451 18.408C83.1264 17.9387 82.8171 17.272 82.8171 16.408V16.168C82.8171 16.1147 82.8331 16.072 82.8651 16.04C82.9077 15.9973 82.9557 15.976 83.0091 15.976H84.4491C84.5024 15.976 84.5451 15.9973 84.5771 16.04C84.6197 16.072 84.6411 16.1147 84.6411 16.168V16.248C84.6411 16.6107 84.7957 16.9147 85.1051 17.16C85.4251 17.3947 85.8837 17.512 86.4811 17.512C86.9824 17.512 87.3611 17.416 87.6171 17.224C87.8837 17.0213 88.0171 16.76 88.0171 16.44C88.0171 16.152 87.8731 15.9173 87.5851 15.736C87.3077 15.5547 86.8224 15.336 86.1291 15.08C85.4144 14.8773 84.8491 14.6907 84.4331 14.52C84.0277 14.3387 83.6757 14.072 83.3771 13.72C83.0784 13.368 82.9291 12.9093 82.9291 12.344C82.9291 11.5013 83.2277 10.8453 83.8251 10.376C84.4224 9.896 85.2597 9.656 86.3371 9.656C87.4357 9.656 88.2891 9.90667 88.8971 10.408C89.5051 10.9093 89.8091 11.608 89.8091 12.504V12.584C89.8091 12.6373 89.7877 12.6853 89.7451 12.728C89.7131 12.76 89.6704 12.776 89.6171 12.776H88.1771C88.1237 12.776 88.0757 12.76 88.0331 12.728C88.0011 12.6853 87.9851 12.6373 87.9851 12.584V12.552C87.9851 12.1787 87.8411 11.8693 87.5531 11.624C87.2651 11.3787 86.8384 11.256 86.2731 11.256C85.7931 11.256 85.4197 11.352 85.1531 11.544C84.8864 11.7253 84.7531 11.976 84.7531 12.296C84.7531 12.5093 84.8171 12.6853 84.9451 12.824C85.0837 12.952 85.2544 13.064 85.4571 13.16C85.6704 13.2453 86.0171 13.368 86.4971 13.528C87.2651 13.752 87.8624 13.9547 88.2891 14.136C88.7264 14.3067 89.0997 14.5733 89.4091 14.936C89.7291 15.288 89.8891 15.7627 89.8891 16.36C89.8891 17.2133 89.5797 17.8853 88.9611 18.376C88.3424 18.8667 87.4731 19.112 86.3531 19.112ZM100.211 9.768C100.264 9.768 100.307 9.78933 100.339 9.832C100.381 9.864 100.403 9.90667 100.403 9.96V11.192C100.403 11.2453 100.381 11.2933 100.339 11.336C100.307 11.368 100.264 11.384 100.211 11.384H97.6826C97.6292 11.384 97.6026 11.4107 97.6026 11.464V18.808C97.6026 18.8613 97.5812 18.9093 97.5386 18.952C97.5066 18.984 97.4639 19 97.4106 19H95.9386C95.8852 19 95.8372 18.984 95.7946 18.952C95.7626 18.9093 95.7466 18.8613 95.7466 18.808V11.464C95.7466 11.4107 95.7199 11.384 95.6666 11.384H93.2186C93.1652 11.384 93.1172 11.368 93.0746 11.336C93.0426 11.2933 93.0266 11.2453 93.0266 11.192V9.96C93.0266 9.90667 93.0426 9.864 93.0746 9.832C93.1172 9.78933 93.1652 9.768 93.2186 9.768H100.211ZM110.671 11.192C110.671 11.2453 110.649 11.2933 110.607 11.336C110.575 11.368 110.532 11.384 110.479 11.384H105.999C105.945 11.384 105.919 11.4107 105.919 11.464V13.464C105.919 13.5173 105.945 13.544 105.999 13.544H108.943C108.996 13.544 109.039 13.5653 109.071 13.608C109.113 13.64 109.135 13.6827 109.135 13.736V14.936C109.135 14.9893 109.113 15.0373 109.071 15.08C109.039 15.112 108.996 15.128 108.943 15.128H105.999C105.945 15.128 105.919 15.1547 105.919 15.208V17.32C105.919 17.3733 105.945 17.4 105.999 17.4H110.479C110.532 17.4 110.575 17.4213 110.607 17.464C110.649 17.496 110.671 17.5387 110.671 17.592V18.808C110.671 18.8613 110.649 18.9093 110.607 18.952C110.575 18.984 110.532 19 110.479 19H104.255C104.201 19 104.153 18.984 104.111 18.952C104.079 18.9093 104.063 18.8613 104.063 18.808V9.96C104.063 9.90667 104.079 9.864 104.111 9.832C104.153 9.78933 104.201 9.768 104.255 9.768H110.479C110.532 9.768 110.575 9.78933 110.607 9.832C110.649 9.864 110.671 9.90667 110.671 9.96V11.192ZM114.686 19C114.633 19 114.585 18.984 114.542 18.952C114.51 18.9093 114.494 18.8613 114.494 18.808V9.96C114.494 9.90667 114.51 9.864 114.542 9.832C114.585 9.78933 114.633 9.768 114.686 9.768H118.062C119.086 9.768 119.907 10.024 120.526 10.536C121.145 11.048 121.454 11.7253 121.454 12.568V16.2C121.454 17.0427 121.145 17.72 120.526 18.232C119.907 18.744 119.086 19 118.062 19H114.686ZM116.35 17.32C116.35 17.3733 116.377 17.4 116.43 17.4H118.142C118.569 17.4 118.915 17.2667 119.182 17C119.449 16.7227 119.587 16.36 119.598 15.912V12.856C119.598 12.408 119.459 12.0507 119.182 11.784C118.915 11.5067 118.563 11.368 118.126 11.368H116.43C116.377 11.368 116.35 11.3947 116.35 11.448V17.32ZM53.4824 40.128C52.6504 40.128 51.9251 39.9947 51.3064 39.728C50.6878 39.4613 50.2078 39.088 49.8664 38.608C49.5358 38.128 49.3704 37.5627 49.3704 36.912V36.512C49.3704 36.4587 49.3864 36.416 49.4184 36.384C49.4611 36.3413 49.5091 36.32 49.5624 36.32H50.9864C51.0398 36.32 51.0824 36.3413 51.1144 36.384C51.1571 36.416 51.1784 36.4587 51.1784 36.512V36.816C51.1784 37.3067 51.3971 37.7173 51.8344 38.048C52.2718 38.368 52.8691 38.528 53.6264 38.528C54.2771 38.528 54.7678 38.3893 55.0984 38.112C55.4291 37.8347 55.5944 37.4773 55.5944 37.04C55.5944 36.7413 55.5038 36.4907 55.3224 36.288C55.1411 36.0747 54.8798 35.8827 54.5384 35.712C54.2078 35.5413 53.7064 35.328 53.0344 35.072C52.2771 34.7947 51.6638 34.5333 51.1944 34.288C50.7251 34.0427 50.3304 33.712 50.0104 33.296C49.7011 32.8693 49.5464 32.3413 49.5464 31.712C49.5464 30.7733 49.8878 30.032 50.5704 29.488C51.2531 28.944 52.1651 28.672 53.3064 28.672C54.1064 28.672 54.8104 28.8107 55.4184 29.088C56.0371 29.3653 56.5171 29.7547 56.8584 30.256C57.1998 30.7467 57.3704 31.3173 57.3704 31.968V32.24C57.3704 32.2933 57.3491 32.3413 57.3064 32.384C57.2744 32.416 57.2318 32.432 57.1784 32.432H55.7384C55.6851 32.432 55.6371 32.416 55.5944 32.384C55.5624 32.3413 55.5464 32.2933 55.5464 32.24V32.064C55.5464 31.5627 55.3384 31.1413 54.9224 30.8C54.5171 30.448 53.9518 30.272 53.2264 30.272C52.6398 30.272 52.1811 30.3947 51.8504 30.64C51.5304 30.8853 51.3704 31.232 51.3704 31.68C51.3704 32 51.4558 32.2613 51.6264 32.464C51.7971 32.6667 52.0531 32.8533 52.3944 33.024C52.7358 33.184 53.2638 33.392 53.9784 33.648C54.7358 33.936 55.3384 34.1973 55.7864 34.432C56.2451 34.6667 56.6344 34.9973 56.9544 35.424C57.2851 35.84 57.4504 36.3627 57.4504 36.992C57.4504 37.952 57.0931 38.7147 56.3784 39.28C55.6744 39.8453 54.7091 40.128 53.4824 40.128ZM68.0396 32.192C68.0396 32.2453 68.0182 32.2933 67.9756 32.336C67.9436 32.368 67.9009 32.384 67.8476 32.384H63.3676C63.3142 32.384 63.2876 32.4107 63.2876 32.464V34.464C63.2876 34.5173 63.3142 34.544 63.3676 34.544H66.3116C66.3649 34.544 66.4076 34.5653 66.4396 34.608C66.4822 34.64 66.5036 34.6827 66.5036 34.736V35.936C66.5036 35.9893 66.4822 36.0373 66.4396 36.08C66.4076 36.112 66.3649 36.128 66.3116 36.128H63.3676C63.3142 36.128 63.2876 36.1547 63.2876 36.208V38.32C63.2876 38.3733 63.3142 38.4 63.3676 38.4H67.8476C67.9009 38.4 67.9436 38.4213 67.9756 38.464C68.0182 38.496 68.0396 38.5387 68.0396 38.592V39.808C68.0396 39.8613 68.0182 39.9093 67.9756 39.952C67.9436 39.984 67.9009 40 67.8476 40H61.6236C61.5702 40 61.5222 39.984 61.4796 39.952C61.4476 39.9093 61.4316 39.8613 61.4316 39.808V30.96C61.4316 30.9067 61.4476 30.864 61.4796 30.832C61.5222 30.7893 61.5702 30.768 61.6236 30.768H67.8476C67.9009 30.768 67.9436 30.7893 67.9756 30.832C68.0182 30.864 68.0396 30.9067 68.0396 30.96V32.192ZM75.1908 40.112C74.4868 40.112 73.8681 39.9733 73.3348 39.696C72.8015 39.408 72.3855 39.0027 72.0868 38.48C71.7988 37.9573 71.6548 37.3493 71.6548 36.656V34.08C71.6548 33.3973 71.7988 32.8 72.0868 32.288C72.3855 31.7653 72.8015 31.3653 73.3348 31.088C73.8681 30.8 74.4868 30.656 75.1908 30.656C75.8841 30.656 76.4975 30.7947 77.0308 31.072C77.5641 31.3387 77.9748 31.7227 78.2628 32.224C78.5508 32.7147 78.6948 33.2853 78.6948 33.936C78.6948 33.9893 78.6735 34.032 78.6308 34.064C78.5988 34.096 78.5561 34.112 78.5028 34.112L77.0308 34.192C76.9028 34.192 76.8388 34.1387 76.8388 34.032C76.8388 33.4773 76.6841 33.0453 76.3748 32.736C76.0655 32.416 75.6495 32.256 75.1268 32.256C74.6361 32.256 74.2415 32.4213 73.9428 32.752C73.6548 33.072 73.5108 33.4987 73.5108 34.032V36.752C73.5108 37.2853 73.6655 37.712 73.9748 38.032C74.2841 38.352 74.6895 38.512 75.1908 38.512C75.6921 38.512 76.0921 38.352 76.3908 38.032C76.6895 37.712 76.8388 37.2853 76.8388 36.752C76.8388 36.6453 76.9028 36.592 77.0308 36.592L78.5028 36.656C78.5561 36.656 78.5988 36.672 78.6308 36.704C78.6735 36.7253 78.6948 36.7573 78.6948 36.8C78.6948 37.8027 78.3748 38.608 77.7348 39.216C77.0948 39.8133 76.2468 40.112 75.1908 40.112ZM86.0313 40.112C85.3273 40.112 84.7086 39.9733 84.1753 39.696C83.642 39.408 83.226 39.008 82.9273 38.496C82.6393 37.9733 82.4953 37.3707 82.4953 36.688V30.96C82.4953 30.9067 82.5113 30.864 82.5433 30.832C82.586 30.7893 82.634 30.768 82.6873 30.768H84.1593C84.2126 30.768 84.2553 30.7893 84.2873 30.832C84.33 30.864 84.3513 30.9067 84.3513 30.96V36.704C84.3513 37.2587 84.5006 37.7013 84.7993 38.032C85.1086 38.352 85.5193 38.512 86.0313 38.512C86.522 38.512 86.9166 38.3467 87.2153 38.016C87.5246 37.6853 87.6793 37.248 87.6793 36.704V30.96C87.6793 30.9067 87.6953 30.864 87.7273 30.832C87.77 30.7893 87.818 30.768 87.8713 30.768H89.3433C89.3966 30.768 89.4393 30.7893 89.4713 30.832C89.514 30.864 89.5353 30.9067 89.5353 30.96V36.688C89.5353 37.3707 89.386 37.9733 89.0873 38.496C88.7993 39.008 88.3886 39.408 87.8553 39.696C87.3326 39.9733 86.7246 40.112 86.0313 40.112ZM98.8159 40C98.7199 40 98.6453 39.952 98.5919 39.856L96.8959 36.368C96.8746 36.3253 96.8426 36.304 96.7999 36.304H95.5519C95.4986 36.304 95.4719 36.3307 95.4719 36.384V39.808C95.4719 39.8613 95.4506 39.9093 95.4079 39.952C95.3759 39.984 95.3333 40 95.2799 40H93.8079C93.7546 40 93.7066 39.984 93.6639 39.952C93.6319 39.9093 93.6159 39.8613 93.6159 39.808V30.944C93.6159 30.8907 93.6319 30.848 93.6639 30.816C93.7066 30.7733 93.7546 30.752 93.8079 30.752H97.5679C98.4426 30.752 99.1466 31.008 99.6799 31.52C100.213 32.032 100.48 32.704 100.48 33.536C100.48 34.1653 100.32 34.7093 99.9999 35.168C99.6906 35.616 99.2639 35.9307 98.7199 36.112C98.6666 36.1333 98.6506 36.1707 98.6719 36.224L100.512 39.776C100.533 39.8187 100.544 39.8507 100.544 39.872C100.544 39.9573 100.485 40 100.368 40H98.8159ZM95.5519 32.352C95.4986 32.352 95.4719 32.3787 95.4719 32.432V34.784C95.4719 34.8373 95.4986 34.864 95.5519 34.864H97.3279C97.7226 34.864 98.0373 34.752 98.2719 34.528C98.5173 34.2933 98.6399 33.9893 98.6399 33.616C98.6399 33.2427 98.5173 32.9387 98.2719 32.704C98.0373 32.4693 97.7226 32.352 97.3279 32.352H95.5519ZM110.89 32.192C110.89 32.2453 110.868 32.2933 110.826 32.336C110.794 32.368 110.751 32.384 110.698 32.384H106.218C106.164 32.384 106.138 32.4107 106.138 32.464V34.464C106.138 34.5173 106.164 34.544 106.218 34.544H109.162C109.215 34.544 109.258 34.5653 109.29 34.608C109.332 34.64 109.354 34.6827 109.354 34.736V35.936C109.354 35.9893 109.332 36.0373 109.29 36.08C109.258 36.112 109.215 36.128 109.162 36.128H106.218C106.164 36.128 106.138 36.1547 106.138 36.208V38.32C106.138 38.3733 106.164 38.4 106.218 38.4H110.698C110.751 38.4 110.794 38.4213 110.826 38.464C110.868 38.496 110.89 38.5387 110.89 38.592V39.808C110.89 39.8613 110.868 39.9093 110.826 39.952C110.794 39.984 110.751 40 110.698 40H104.474C104.42 40 104.372 39.984 104.33 39.952C104.298 39.9093 104.282 39.8613 104.282 39.808V30.96C104.282 30.9067 104.298 30.864 104.33 30.832C104.372 30.7893 104.42 30.768 104.474 30.768H110.698C110.751 30.768 110.794 30.7893 110.826 30.832C110.868 30.864 110.89 30.9067 110.89 30.96V32.192ZM114.905 40C114.851 40 114.803 39.984 114.761 39.952C114.729 39.9093 114.713 39.8613 114.713 39.808V30.96C114.713 30.9067 114.729 30.864 114.761 30.832C114.803 30.7893 114.851 30.768 114.905 30.768H118.281C119.305 30.768 120.126 31.024 120.745 31.536C121.363 32.048 121.673 32.7253 121.673 33.568V37.2C121.673 38.0427 121.363 38.72 120.745 39.232C120.126 39.744 119.305 40 118.281 40H114.905ZM116.569 38.32C116.569 38.3733 116.595 38.4 116.649 38.4H118.361C118.787 38.4 119.134 38.2667 119.401 38C119.667 37.7227 119.806 37.36 119.817 36.912V33.856C119.817 33.408 119.678 33.0507 119.401 32.784C119.134 32.5067 118.782 32.368 118.345 32.368H116.649C116.595 32.368 116.569 32.3947 116.569 32.448V38.32Z" fill="#87C923"/>
<path d="M81.5617 27C81.5217 27 81.4957 26.98 81.4837 26.94L81.2857 26.298C81.2777 26.282 81.2677 26.274 81.2557 26.274H79.6717C79.6597 26.274 79.6497 26.282 79.6417 26.298L79.4437 26.94C79.4317 26.98 79.4057 27 79.3657 27H78.7657C78.7417 27 78.7237 26.994 78.7117 26.982C78.6997 26.966 78.6977 26.944 78.7057 26.916L80.0077 22.86C80.0197 22.82 80.0457 22.8 80.0857 22.8H80.8357C80.8757 22.8 80.9017 22.82 80.9137 22.86L82.2217 26.916C82.2257 26.924 82.2277 26.934 82.2277 26.946C82.2277 26.982 82.2057 27 82.1617 27H81.5617ZM79.8277 25.692C79.8237 25.716 79.8317 25.728 79.8517 25.728H81.0697C81.0937 25.728 81.1017 25.716 81.0937 25.692L80.4757 23.682C80.4717 23.666 80.4657 23.658 80.4577 23.658C80.4497 23.658 80.4437 23.666 80.4397 23.682L79.8277 25.692ZM86.4904 22.872C86.4904 22.852 86.4964 22.836 86.5084 22.824C86.5244 22.808 86.5424 22.8 86.5624 22.8H87.1144C87.1344 22.8 87.1504 22.808 87.1624 22.824C87.1784 22.836 87.1864 22.852 87.1864 22.872V26.928C87.1864 26.948 87.1784 26.966 87.1624 26.982C87.1504 26.994 87.1344 27 87.1144 27H86.5804C86.5404 27 86.5124 26.984 86.4964 26.952L84.7684 24.12C84.7604 24.108 84.7524 24.104 84.7444 24.108C84.7364 24.108 84.7324 24.116 84.7324 24.132L84.7444 26.928C84.7444 26.948 84.7364 26.966 84.7204 26.982C84.7084 26.994 84.6924 27 84.6724 27H84.1204C84.1004 27 84.0824 26.994 84.0664 26.982C84.0544 26.966 84.0484 26.948 84.0484 26.928V22.872C84.0484 22.852 84.0544 22.836 84.0664 22.824C84.0824 22.808 84.1004 22.8 84.1204 22.8H84.6544C84.6944 22.8 84.7224 22.816 84.7384 22.848L86.4604 25.68C86.4684 25.692 86.4764 25.698 86.4844 25.698C86.4924 25.694 86.4964 25.684 86.4964 25.668L86.4904 22.872ZM89.2813 27C89.2613 27 89.2433 26.994 89.2273 26.982C89.2153 26.966 89.2093 26.948 89.2093 26.928V22.872C89.2093 22.852 89.2153 22.836 89.2273 22.824C89.2433 22.808 89.2613 22.8 89.2813 22.8H90.7453C91.0293 22.8 91.2793 22.85 91.4953 22.95C91.7113 23.05 91.8773 23.194 91.9933 23.382C92.1133 23.566 92.1733 23.782 92.1733 24.03V25.77C92.1733 26.018 92.1133 26.236 91.9933 26.424C91.8773 26.608 91.7113 26.75 91.4953 26.85C91.2793 26.95 91.0293 27 90.7453 27H89.2813ZM89.9053 26.37C89.9053 26.39 89.9153 26.4 89.9353 26.4H90.7753C90.9873 26.4 91.1553 26.334 91.2793 26.202C91.4073 26.066 91.4733 25.886 91.4773 25.662V24.144C91.4773 23.916 91.4133 23.736 91.2853 23.604C91.1573 23.468 90.9853 23.4 90.7693 23.4H89.9353C89.9153 23.4 89.9053 23.41 89.9053 23.43V26.37Z" fill="#87C923"/>
<path d="M46 25H77" stroke="black" stroke-opacity="0.3" stroke-width="0.2" stroke-linecap="round"/>
<path d="M94 25L124 25" stroke="black" stroke-opacity="0.3" stroke-width="0.2" stroke-linecap="round"/>
</svg>
